%
M48
M72
T01C0.01969
T02C0.02362
T03C0.02756
T04C0.03150
T05C0.03543
T06C0.03937
T07C0.04000
T08C0.04331
T09C0.04724
T10C0.05118
T11C0.05512
T12C0.05906
T13C0.06299
T14C0.07874
T15C0.08661
T16C0.11024
T17C0.12598
%
T01
X21175Y128500
X27875Y140982
X38875Y146900
X46675Y143500
X45275Y128500
X63275Y134000
X67275Y150000
X81975Y166400
X73075Y180700
X60475Y183200
X60225Y187950
X57675Y177600
X43090Y199185
X35842Y179000
X26275Y179600
X122275Y210000
X74175Y280500
T02
X59775Y47500
X74775Y37500
X128275Y60000
X137975Y40400
X129275Y28000
X135275Y22000
X187275Y28000
X197275Y75000
X160275Y83000
X140575Y83100
X132275Y210000
T03
X142275Y210000
T04
X152275Y210000
T05
X162275Y210000
T06
X172275Y210000
T07
X122275Y70000
X122275Y60000
X122275Y50000
X122275Y40000
X157275Y21000
X167275Y21000
X177275Y21000
X232275Y45000
X232275Y55000
X232275Y65000
X312275Y60000
X312275Y50000
X312275Y40000
X312275Y70000
X87275Y260000
X87275Y270000
X87275Y280000
X87275Y290000
T08
X182275Y210000
T09
X192275Y210000
T10
X202275Y210000
T11
X122275Y195000
X212275Y210000
T12
X12275Y100000
X22275Y100000
X32275Y100000
X42275Y100000
X52275Y100000
X62275Y100000
X72275Y100000
X82275Y100000
X92275Y100000
X102275Y100000
X102275Y90000
X102275Y80000
X102275Y70000
X102275Y60000
X102275Y50000
X102275Y40000
X102275Y30000
X102275Y20000
X102275Y10000
X92275Y10000
X82275Y10000
X72275Y10000
X62275Y10000
X52275Y10000
X42275Y10000
X32275Y10000
X22275Y10000
X12275Y10000
X12275Y120000
X22275Y120000
X32275Y120000
X42275Y120000
X52275Y120000
X62275Y120000
X72275Y120000
X82275Y120000
X92275Y120000
X102275Y120000
X102275Y130000
X102275Y140000
X102275Y150000
X102275Y160000
X102275Y170000
X102275Y180000
X102275Y190000
X102275Y200000
X102275Y210000
X92275Y210000
X82275Y210000
X72275Y210000
X62275Y210000
X52275Y210000
X42275Y210000
X32275Y210000
X22275Y210000
X12275Y210000
X12275Y230000
X22275Y230000
X32275Y230000
X42275Y230000
X52275Y230000
X62275Y230000
X72275Y230000
X82275Y230000
X92275Y230000
X102275Y230000
X102275Y240000
X102275Y250000
X102275Y260000
X102275Y270000
X102275Y280000
X102275Y290000
X102275Y300000
X102275Y310000
X102275Y320000
X92275Y320000
X82275Y320000
X72275Y320000
X62275Y320000
X52275Y320000
X42275Y320000
X32275Y320000
X22275Y320000
X12275Y320000
X122275Y320000
X132275Y320000
X132275Y310000
X142275Y310000
X142275Y320000
X152275Y320000
X152275Y310000
X162275Y310000
X162275Y320000
X172275Y320000
X172275Y310000
X182275Y310000
X182275Y320000
X192275Y320000
X192275Y310000
X202275Y310000
X202275Y320000
X212275Y320000
X212275Y310000
X212275Y300000
X212275Y290000
X212275Y280000
X212275Y270000
X212275Y260000
X212275Y250000
X202275Y250000
X202275Y240000
X192275Y240000
X182275Y240000
X172275Y240000
X162275Y240000
X152275Y240000
X142275Y240000
X132275Y240000
X132275Y230000
X122275Y230000
X142275Y230000
X152275Y230000
X162275Y230000
X172275Y230000
X182275Y230000
X192275Y230000
X202275Y230000
X212275Y230000
X212275Y240000
X232275Y230000
X242275Y230000
X242275Y240000
X252275Y240000
X252275Y230000
X262275Y230000
X262275Y240000
X272275Y240000
X272275Y230000
X282275Y230000
X282275Y240000
X292275Y240000
X292275Y230000
X302275Y230000
X302275Y240000
X312275Y240000
X312275Y230000
X322275Y230000
X322275Y240000
X322275Y250000
X312275Y250000
X322275Y260000
X322275Y270000
X322275Y280000
X322275Y290000
X322275Y300000
X322275Y310000
X312275Y310000
X302275Y310000
X292275Y310000
X282275Y310000
X272275Y310000
X262275Y310000
X252275Y310000
X242275Y310000
X242275Y320000
X232275Y320000
X252275Y320000
X262275Y320000
X272275Y320000
X282275Y320000
X292275Y320000
X302275Y320000
X312275Y320000
X322275Y320000
X307275Y295000
X297275Y295000
X287275Y295000
X277275Y295000
X267275Y295000
X257275Y295000
X247275Y295000
X237275Y295000
X237275Y285000
X237275Y275000
X237275Y265000
X247275Y265000
X247275Y275000
X247275Y285000
X257275Y285000
X257275Y275000
X257275Y265000
X267275Y265000
X267275Y275000
X267275Y285000
X277275Y285000
X277275Y275000
X277275Y265000
X287275Y265000
X287275Y275000
X287275Y285000
X297275Y285000
X297275Y275000
X297275Y265000
X307275Y265000
X307275Y275000
X307275Y285000
X297275Y255000
X287275Y255000
X277275Y255000
X267275Y255000
X257275Y255000
X247275Y255000
X237275Y255000
X197275Y265000
X187275Y265000
X177275Y265000
X167275Y265000
X157275Y265000
X147275Y265000
X137275Y265000
X127275Y265000
X127275Y275000
X127275Y285000
X127275Y295000
X137275Y295000
X137275Y285000
X137275Y275000
X147275Y275000
X147275Y285000
X147275Y295000
X157275Y295000
X157275Y285000
X157275Y275000
X167275Y275000
X167275Y285000
X167275Y295000
X177275Y295000
X177275Y285000
X177275Y275000
X187275Y275000
X187275Y285000
X187275Y295000
X197275Y295000
X197275Y285000
X197275Y275000
X187275Y255000
X177275Y255000
X167275Y255000
X157275Y255000
X147275Y255000
X137275Y255000
X127275Y255000
X132275Y195000
X232275Y210000
X242275Y210000
X242275Y200000
X252275Y200000
X252275Y210000
X262275Y210000
X262275Y200000
X272275Y200000
X272275Y210000
X282275Y210000
X282275Y200000
X292275Y200000
X292275Y210000
X302275Y210000
X302275Y200000
X312275Y200000
X312275Y210000
X322275Y210000
X322275Y200000
X322275Y190000
X322275Y180000
X322275Y170000
X322275Y160000
X322275Y150000
X322275Y140000
X312275Y140000
X312275Y130000
X302275Y130000
X292275Y130000
X282275Y130000
X272275Y130000
X262275Y130000
X252275Y130000
X242275Y130000
X242275Y120000
X232275Y120000
X232275Y100000
X242275Y100000
X252275Y100000
X262275Y100000
X272275Y100000
X282275Y100000
X292275Y100000
X302275Y100000
X312275Y100000
X322275Y100000
X322275Y90000
X322275Y80000
X322275Y70000
X322275Y60000
X322275Y50000
X322275Y40000
X322275Y30000
X322275Y20000
X322275Y10000
X312275Y10000
X302275Y10000
X292275Y10000
X282275Y10000
X272275Y10000
X262275Y10000
X252275Y10000
X242275Y10000
X232275Y10000
X212275Y10000
X202275Y10000
X192275Y10000
X182275Y10000
X172275Y10000
X162275Y10000
X152275Y10000
X142275Y10000
X132275Y10000
X122275Y10000
X122275Y100000
X132275Y100000
X142275Y100000
X152275Y100000
X162275Y100000
X172275Y100000
X182275Y100000
X192275Y100000
X202275Y100000
X212275Y100000
X212275Y90000
X212275Y80000
X212275Y70000
X212275Y60000
X212275Y50000
X212275Y40000
X212275Y30000
X212275Y20000
X252275Y120000
X262275Y120000
X272275Y120000
X282275Y120000
X292275Y120000
X302275Y120000
X312275Y120000
X322275Y120000
X322275Y130000
X297275Y145000
X287275Y145000
X277275Y145000
X267275Y145000
X257275Y145000
X247275Y145000
X237275Y145000
X237275Y155000
X237275Y165000
X237275Y175000
X237275Y185000
X247275Y185000
X247275Y175000
X247275Y165000
X247275Y155000
X257275Y155000
X257275Y165000
X257275Y175000
X257275Y185000
X267275Y185000
X267275Y175000
X267275Y165000
X267275Y155000
X277275Y155000
X277275Y165000
X277275Y175000
X277275Y185000
X287275Y185000
X287275Y175000
X287275Y165000
X287275Y155000
X297275Y155000
X297275Y165000
X297275Y175000
X297275Y185000
X307275Y185000
X307275Y175000
X307275Y165000
X307275Y155000
T13
X142275Y195000
T14
X152275Y195000
T15
X162275Y195000
T16
X177275Y195000
T17
X192275Y195000
M30
