G75*
%MOIN*%
%OFA0B0*%
%FSLAX25Y25*%
%IPPOS*%
%LPD*%
%AMOC8*
5,1,8,0,0,1.08239X$1,22.5*
%
%ADD10C,0.00000*%
%ADD11C,0.00100*%
%ADD12C,0.08858*%
%ADD13OC8,0.08858*%
%ADD14R,0.05906X0.05118*%
%ADD15R,0.03543X0.05512*%
%ADD16R,0.05500X0.01800*%
%ADD17R,0.05118X0.14173*%
%ADD18R,0.05512X0.06299*%
%ADD19C,0.07400*%
%ADD20R,0.02165X0.04724*%
%ADD21R,0.06299X0.05512*%
%ADD22R,0.03150X0.03543*%
%ADD23R,0.05512X0.05512*%
%ADD24R,0.05512X0.01378*%
%ADD25R,0.07480X0.07087*%
%ADD26R,0.07480X0.07480*%
%ADD27R,0.18110X0.03937*%
%ADD28R,0.13386X0.06299*%
%ADD29R,0.06300X0.04600*%
%ADD30C,0.01000*%
%ADD31C,0.02400*%
%ADD32C,0.03369*%
%ADD33C,0.03762*%
%ADD34C,0.01600*%
%ADD35R,0.03762X0.03762*%
%ADD36C,0.04156*%
%ADD37C,0.04724*%
%ADD38C,0.05315*%
%ADD39C,0.05906*%
%ADD40C,0.06496*%
%ADD41C,0.07087*%
%ADD42C,0.07677*%
%ADD43C,0.08268*%
D10*
X0006275Y0006500D02*
X0006275Y0103500D01*
X0006277Y0103598D01*
X0006283Y0103696D01*
X0006292Y0103794D01*
X0006306Y0103891D01*
X0006323Y0103988D01*
X0006344Y0104084D01*
X0006369Y0104179D01*
X0006397Y0104273D01*
X0006430Y0104365D01*
X0006465Y0104457D01*
X0006505Y0104547D01*
X0006547Y0104635D01*
X0006594Y0104722D01*
X0006643Y0104806D01*
X0006696Y0104889D01*
X0006752Y0104969D01*
X0006812Y0105048D01*
X0006874Y0105124D01*
X0006939Y0105197D01*
X0007007Y0105268D01*
X0007078Y0105336D01*
X0007151Y0105401D01*
X0007227Y0105463D01*
X0007306Y0105523D01*
X0007386Y0105579D01*
X0007469Y0105632D01*
X0007553Y0105681D01*
X0007640Y0105728D01*
X0007728Y0105770D01*
X0007818Y0105810D01*
X0007910Y0105845D01*
X0008002Y0105878D01*
X0008096Y0105906D01*
X0008191Y0105931D01*
X0008287Y0105952D01*
X0008384Y0105969D01*
X0008481Y0105983D01*
X0008579Y0105992D01*
X0008677Y0105998D01*
X0008775Y0106000D01*
X0057275Y0106000D01*
X0057275Y0114000D01*
X0008775Y0114000D01*
X0008677Y0114002D01*
X0008579Y0114008D01*
X0008481Y0114017D01*
X0008384Y0114031D01*
X0008287Y0114048D01*
X0008191Y0114069D01*
X0008096Y0114094D01*
X0008002Y0114122D01*
X0007910Y0114155D01*
X0007818Y0114190D01*
X0007728Y0114230D01*
X0007640Y0114272D01*
X0007553Y0114319D01*
X0007469Y0114368D01*
X0007386Y0114421D01*
X0007306Y0114477D01*
X0007227Y0114537D01*
X0007151Y0114599D01*
X0007078Y0114664D01*
X0007007Y0114732D01*
X0006939Y0114803D01*
X0006874Y0114876D01*
X0006812Y0114952D01*
X0006752Y0115031D01*
X0006696Y0115111D01*
X0006643Y0115194D01*
X0006594Y0115278D01*
X0006547Y0115365D01*
X0006505Y0115453D01*
X0006465Y0115543D01*
X0006430Y0115635D01*
X0006397Y0115727D01*
X0006369Y0115821D01*
X0006344Y0115916D01*
X0006323Y0116012D01*
X0006306Y0116109D01*
X0006292Y0116206D01*
X0006283Y0116304D01*
X0006277Y0116402D01*
X0006275Y0116500D01*
X0006275Y0213500D01*
X0006277Y0213598D01*
X0006283Y0213696D01*
X0006292Y0213794D01*
X0006306Y0213891D01*
X0006323Y0213988D01*
X0006344Y0214084D01*
X0006369Y0214179D01*
X0006397Y0214273D01*
X0006430Y0214365D01*
X0006465Y0214457D01*
X0006505Y0214547D01*
X0006547Y0214635D01*
X0006594Y0214722D01*
X0006643Y0214806D01*
X0006696Y0214889D01*
X0006752Y0214969D01*
X0006812Y0215048D01*
X0006874Y0215124D01*
X0006939Y0215197D01*
X0007007Y0215268D01*
X0007078Y0215336D01*
X0007151Y0215401D01*
X0007227Y0215463D01*
X0007306Y0215523D01*
X0007386Y0215579D01*
X0007469Y0215632D01*
X0007553Y0215681D01*
X0007640Y0215728D01*
X0007728Y0215770D01*
X0007818Y0215810D01*
X0007910Y0215845D01*
X0008002Y0215878D01*
X0008096Y0215906D01*
X0008191Y0215931D01*
X0008287Y0215952D01*
X0008384Y0215969D01*
X0008481Y0215983D01*
X0008579Y0215992D01*
X0008677Y0215998D01*
X0008775Y0216000D01*
X0057275Y0216000D01*
X0057275Y0224000D01*
X0008775Y0224000D01*
X0008677Y0224002D01*
X0008579Y0224008D01*
X0008481Y0224017D01*
X0008384Y0224031D01*
X0008287Y0224048D01*
X0008191Y0224069D01*
X0008096Y0224094D01*
X0008002Y0224122D01*
X0007910Y0224155D01*
X0007818Y0224190D01*
X0007728Y0224230D01*
X0007640Y0224272D01*
X0007553Y0224319D01*
X0007469Y0224368D01*
X0007386Y0224421D01*
X0007306Y0224477D01*
X0007227Y0224537D01*
X0007151Y0224599D01*
X0007078Y0224664D01*
X0007007Y0224732D01*
X0006939Y0224803D01*
X0006874Y0224876D01*
X0006812Y0224952D01*
X0006752Y0225031D01*
X0006696Y0225111D01*
X0006643Y0225194D01*
X0006594Y0225278D01*
X0006547Y0225365D01*
X0006505Y0225453D01*
X0006465Y0225543D01*
X0006430Y0225635D01*
X0006397Y0225727D01*
X0006369Y0225821D01*
X0006344Y0225916D01*
X0006323Y0226012D01*
X0006306Y0226109D01*
X0006292Y0226206D01*
X0006283Y0226304D01*
X0006277Y0226402D01*
X0006275Y0226500D01*
X0006275Y0323511D01*
X0006277Y0323609D01*
X0006283Y0323707D01*
X0006292Y0323805D01*
X0006306Y0323902D01*
X0006323Y0323999D01*
X0006344Y0324095D01*
X0006369Y0324190D01*
X0006397Y0324284D01*
X0006430Y0324376D01*
X0006465Y0324468D01*
X0006505Y0324558D01*
X0006547Y0324646D01*
X0006594Y0324733D01*
X0006643Y0324817D01*
X0006696Y0324900D01*
X0006752Y0324980D01*
X0006812Y0325059D01*
X0006874Y0325135D01*
X0006939Y0325208D01*
X0007007Y0325279D01*
X0007078Y0325347D01*
X0007151Y0325412D01*
X0007227Y0325474D01*
X0007306Y0325534D01*
X0007386Y0325590D01*
X0007469Y0325643D01*
X0007553Y0325692D01*
X0007640Y0325739D01*
X0007728Y0325781D01*
X0007818Y0325821D01*
X0007910Y0325856D01*
X0008002Y0325889D01*
X0008096Y0325917D01*
X0008191Y0325942D01*
X0008287Y0325963D01*
X0008384Y0325980D01*
X0008481Y0325994D01*
X0008579Y0326003D01*
X0008677Y0326009D01*
X0008775Y0326011D01*
X0105775Y0326011D01*
X0105873Y0326009D01*
X0105971Y0326003D01*
X0106069Y0325994D01*
X0106166Y0325980D01*
X0106263Y0325963D01*
X0106359Y0325942D01*
X0106454Y0325917D01*
X0106548Y0325889D01*
X0106640Y0325856D01*
X0106732Y0325821D01*
X0106822Y0325781D01*
X0106910Y0325739D01*
X0106997Y0325692D01*
X0107081Y0325643D01*
X0107164Y0325590D01*
X0107244Y0325534D01*
X0107323Y0325474D01*
X0107399Y0325412D01*
X0107472Y0325347D01*
X0107543Y0325279D01*
X0107611Y0325208D01*
X0107676Y0325135D01*
X0107738Y0325059D01*
X0107798Y0324980D01*
X0107854Y0324900D01*
X0107907Y0324817D01*
X0107956Y0324733D01*
X0108003Y0324646D01*
X0108045Y0324558D01*
X0108085Y0324468D01*
X0108120Y0324376D01*
X0108153Y0324284D01*
X0108181Y0324190D01*
X0108206Y0324095D01*
X0108227Y0323999D01*
X0108244Y0323902D01*
X0108258Y0323805D01*
X0108267Y0323707D01*
X0108273Y0323609D01*
X0108275Y0323511D01*
X0108275Y0275000D01*
X0116275Y0275000D01*
X0116275Y0323500D01*
X0116277Y0323598D01*
X0116283Y0323696D01*
X0116292Y0323794D01*
X0116306Y0323891D01*
X0116323Y0323988D01*
X0116344Y0324084D01*
X0116369Y0324179D01*
X0116397Y0324273D01*
X0116430Y0324365D01*
X0116465Y0324457D01*
X0116505Y0324547D01*
X0116547Y0324635D01*
X0116594Y0324722D01*
X0116643Y0324806D01*
X0116696Y0324889D01*
X0116752Y0324969D01*
X0116812Y0325048D01*
X0116874Y0325124D01*
X0116939Y0325197D01*
X0117007Y0325268D01*
X0117078Y0325336D01*
X0117151Y0325401D01*
X0117227Y0325463D01*
X0117306Y0325523D01*
X0117386Y0325579D01*
X0117469Y0325632D01*
X0117553Y0325681D01*
X0117640Y0325728D01*
X0117728Y0325770D01*
X0117818Y0325810D01*
X0117910Y0325845D01*
X0118002Y0325878D01*
X0118096Y0325906D01*
X0118191Y0325931D01*
X0118287Y0325952D01*
X0118384Y0325969D01*
X0118481Y0325983D01*
X0118579Y0325992D01*
X0118677Y0325998D01*
X0118775Y0326000D01*
X0215775Y0326000D01*
X0215873Y0325998D01*
X0215971Y0325992D01*
X0216069Y0325983D01*
X0216166Y0325969D01*
X0216263Y0325952D01*
X0216359Y0325931D01*
X0216454Y0325906D01*
X0216548Y0325878D01*
X0216640Y0325845D01*
X0216732Y0325810D01*
X0216822Y0325770D01*
X0216910Y0325728D01*
X0216997Y0325681D01*
X0217081Y0325632D01*
X0217164Y0325579D01*
X0217244Y0325523D01*
X0217323Y0325463D01*
X0217399Y0325401D01*
X0217472Y0325336D01*
X0217543Y0325268D01*
X0217611Y0325197D01*
X0217676Y0325124D01*
X0217738Y0325048D01*
X0217798Y0324969D01*
X0217854Y0324889D01*
X0217907Y0324806D01*
X0217956Y0324722D01*
X0218003Y0324635D01*
X0218045Y0324547D01*
X0218085Y0324457D01*
X0218120Y0324365D01*
X0218153Y0324273D01*
X0218181Y0324179D01*
X0218206Y0324084D01*
X0218227Y0323988D01*
X0218244Y0323891D01*
X0218258Y0323794D01*
X0218267Y0323696D01*
X0218273Y0323598D01*
X0218275Y0323500D01*
X0218275Y0275000D01*
X0226275Y0275000D01*
X0226275Y0323500D01*
X0226275Y0323501D02*
X0226277Y0323599D01*
X0226282Y0323697D01*
X0226291Y0323795D01*
X0226304Y0323892D01*
X0226321Y0323989D01*
X0226342Y0324085D01*
X0226367Y0324180D01*
X0226395Y0324274D01*
X0226427Y0324367D01*
X0226463Y0324459D01*
X0226502Y0324549D01*
X0226544Y0324638D01*
X0226591Y0324724D01*
X0226640Y0324809D01*
X0226693Y0324892D01*
X0226749Y0324973D01*
X0226809Y0325051D01*
X0226871Y0325127D01*
X0226936Y0325201D01*
X0227004Y0325272D01*
X0227075Y0325340D01*
X0227149Y0325405D01*
X0227225Y0325467D01*
X0227303Y0325527D01*
X0227384Y0325583D01*
X0227466Y0325636D01*
X0227551Y0325685D01*
X0227638Y0325731D01*
X0227727Y0325774D01*
X0227817Y0325813D01*
X0227908Y0325849D01*
X0228001Y0325881D01*
X0228095Y0325909D01*
X0228191Y0325934D01*
X0228287Y0325955D01*
X0228383Y0325972D01*
X0228481Y0325985D01*
X0228579Y0325994D01*
X0228677Y0325999D01*
X0228775Y0326001D01*
X0228775Y0326000D02*
X0328275Y0326011D01*
X0328276Y0326011D01*
X0328275Y0326011D02*
X0328275Y0226500D01*
X0328273Y0226402D01*
X0328267Y0226304D01*
X0328258Y0226206D01*
X0328244Y0226109D01*
X0328227Y0226012D01*
X0328206Y0225916D01*
X0328181Y0225821D01*
X0328153Y0225727D01*
X0328120Y0225635D01*
X0328085Y0225543D01*
X0328045Y0225453D01*
X0328003Y0225365D01*
X0327956Y0225278D01*
X0327907Y0225194D01*
X0327854Y0225111D01*
X0327798Y0225031D01*
X0327738Y0224952D01*
X0327676Y0224876D01*
X0327611Y0224803D01*
X0327543Y0224732D01*
X0327472Y0224664D01*
X0327399Y0224599D01*
X0327323Y0224537D01*
X0327244Y0224477D01*
X0327164Y0224421D01*
X0327081Y0224368D01*
X0326997Y0224319D01*
X0326910Y0224272D01*
X0326822Y0224230D01*
X0326732Y0224190D01*
X0326640Y0224155D01*
X0326548Y0224122D01*
X0326454Y0224094D01*
X0326359Y0224069D01*
X0326263Y0224048D01*
X0326166Y0224031D01*
X0326069Y0224017D01*
X0325971Y0224008D01*
X0325873Y0224002D01*
X0325775Y0224000D01*
X0277275Y0224000D01*
X0277275Y0216000D01*
X0325775Y0216000D01*
X0325873Y0215998D01*
X0325971Y0215992D01*
X0326069Y0215983D01*
X0326166Y0215969D01*
X0326263Y0215952D01*
X0326359Y0215931D01*
X0326454Y0215906D01*
X0326548Y0215878D01*
X0326640Y0215845D01*
X0326732Y0215810D01*
X0326822Y0215770D01*
X0326910Y0215728D01*
X0326997Y0215681D01*
X0327081Y0215632D01*
X0327164Y0215579D01*
X0327244Y0215523D01*
X0327323Y0215463D01*
X0327399Y0215401D01*
X0327472Y0215336D01*
X0327543Y0215268D01*
X0327611Y0215197D01*
X0327676Y0215124D01*
X0327738Y0215048D01*
X0327798Y0214969D01*
X0327854Y0214889D01*
X0327907Y0214806D01*
X0327956Y0214722D01*
X0328003Y0214635D01*
X0328045Y0214547D01*
X0328085Y0214457D01*
X0328120Y0214365D01*
X0328153Y0214273D01*
X0328181Y0214179D01*
X0328206Y0214084D01*
X0328227Y0213988D01*
X0328244Y0213891D01*
X0328258Y0213794D01*
X0328267Y0213696D01*
X0328273Y0213598D01*
X0328275Y0213500D01*
X0328275Y0116500D01*
X0328273Y0116402D01*
X0328267Y0116304D01*
X0328258Y0116206D01*
X0328244Y0116109D01*
X0328227Y0116012D01*
X0328206Y0115916D01*
X0328181Y0115821D01*
X0328153Y0115727D01*
X0328120Y0115635D01*
X0328085Y0115543D01*
X0328045Y0115453D01*
X0328003Y0115365D01*
X0327956Y0115278D01*
X0327907Y0115194D01*
X0327854Y0115111D01*
X0327798Y0115031D01*
X0327738Y0114952D01*
X0327676Y0114876D01*
X0327611Y0114803D01*
X0327543Y0114732D01*
X0327472Y0114664D01*
X0327399Y0114599D01*
X0327323Y0114537D01*
X0327244Y0114477D01*
X0327164Y0114421D01*
X0327081Y0114368D01*
X0326997Y0114319D01*
X0326910Y0114272D01*
X0326822Y0114230D01*
X0326732Y0114190D01*
X0326640Y0114155D01*
X0326548Y0114122D01*
X0326454Y0114094D01*
X0326359Y0114069D01*
X0326263Y0114048D01*
X0326166Y0114031D01*
X0326069Y0114017D01*
X0325971Y0114008D01*
X0325873Y0114002D01*
X0325775Y0114000D01*
X0277275Y0114000D01*
X0277275Y0106000D01*
X0325776Y0106000D01*
X0325776Y0105999D02*
X0325879Y0105985D01*
X0325982Y0105967D01*
X0326085Y0105945D01*
X0326186Y0105919D01*
X0326286Y0105890D01*
X0326386Y0105857D01*
X0326484Y0105820D01*
X0326580Y0105780D01*
X0326675Y0105736D01*
X0326769Y0105689D01*
X0326860Y0105638D01*
X0326950Y0105585D01*
X0327038Y0105528D01*
X0327123Y0105467D01*
X0327207Y0105404D01*
X0327287Y0105338D01*
X0327366Y0105268D01*
X0327442Y0105196D01*
X0327515Y0105122D01*
X0327585Y0105044D01*
X0327653Y0104964D01*
X0327717Y0104882D01*
X0327779Y0104797D01*
X0327837Y0104711D01*
X0327893Y0104622D01*
X0327944Y0104531D01*
X0327993Y0104438D01*
X0328038Y0104344D01*
X0328080Y0104248D01*
X0328118Y0104150D01*
X0328152Y0104052D01*
X0328183Y0103952D01*
X0328210Y0103851D01*
X0328234Y0103749D01*
X0328254Y0103646D01*
X0328270Y0103543D01*
X0328282Y0103439D01*
X0328290Y0103334D01*
X0328295Y0103230D01*
X0328296Y0103125D01*
X0328293Y0103021D01*
X0328286Y0102916D01*
X0328275Y0102812D01*
X0328276Y0102812D02*
X0328276Y0007187D01*
X0328277Y0007187D02*
X0328300Y0007090D01*
X0328320Y0006993D01*
X0328335Y0006894D01*
X0328347Y0006795D01*
X0328355Y0006696D01*
X0328359Y0006596D01*
X0328359Y0006496D01*
X0328355Y0006397D01*
X0328347Y0006298D01*
X0328335Y0006199D01*
X0328320Y0006100D01*
X0328300Y0006002D01*
X0328277Y0005905D01*
X0328250Y0005809D01*
X0328220Y0005715D01*
X0328185Y0005621D01*
X0328147Y0005529D01*
X0328106Y0005438D01*
X0328060Y0005350D01*
X0328012Y0005262D01*
X0327960Y0005177D01*
X0327905Y0005094D01*
X0327846Y0005014D01*
X0327785Y0004935D01*
X0327720Y0004859D01*
X0327653Y0004786D01*
X0327583Y0004715D01*
X0327510Y0004647D01*
X0327434Y0004582D01*
X0327356Y0004520D01*
X0327276Y0004462D01*
X0327193Y0004406D01*
X0327108Y0004354D01*
X0327021Y0004304D01*
X0326933Y0004259D01*
X0326843Y0004217D01*
X0326751Y0004178D01*
X0326657Y0004143D01*
X0326563Y0004112D01*
X0326467Y0004085D01*
X0326370Y0004061D01*
X0326272Y0004041D01*
X0326174Y0004025D01*
X0326075Y0004013D01*
X0325976Y0004004D01*
X0325876Y0004000D01*
X0325777Y0003999D01*
X0325776Y0004000D02*
X0228775Y0004000D01*
X0228677Y0004002D01*
X0228579Y0004008D01*
X0228481Y0004017D01*
X0228384Y0004031D01*
X0228287Y0004048D01*
X0228191Y0004069D01*
X0228096Y0004094D01*
X0228002Y0004122D01*
X0227910Y0004155D01*
X0227818Y0004190D01*
X0227728Y0004230D01*
X0227640Y0004272D01*
X0227553Y0004319D01*
X0227469Y0004368D01*
X0227386Y0004421D01*
X0227306Y0004477D01*
X0227227Y0004537D01*
X0227151Y0004599D01*
X0227078Y0004664D01*
X0227007Y0004732D01*
X0226939Y0004803D01*
X0226874Y0004876D01*
X0226812Y0004952D01*
X0226752Y0005031D01*
X0226696Y0005111D01*
X0226643Y0005194D01*
X0226594Y0005278D01*
X0226547Y0005365D01*
X0226505Y0005453D01*
X0226465Y0005543D01*
X0226430Y0005635D01*
X0226397Y0005727D01*
X0226369Y0005821D01*
X0226344Y0005916D01*
X0226323Y0006012D01*
X0226306Y0006109D01*
X0226292Y0006206D01*
X0226283Y0006304D01*
X0226277Y0006402D01*
X0226275Y0006500D01*
X0226275Y0055000D01*
X0218275Y0055000D01*
X0218275Y0006500D01*
X0218273Y0006402D01*
X0218267Y0006304D01*
X0218258Y0006206D01*
X0218244Y0006109D01*
X0218227Y0006012D01*
X0218206Y0005916D01*
X0218181Y0005821D01*
X0218153Y0005727D01*
X0218120Y0005635D01*
X0218085Y0005543D01*
X0218045Y0005453D01*
X0218003Y0005365D01*
X0217956Y0005278D01*
X0217907Y0005194D01*
X0217854Y0005111D01*
X0217798Y0005031D01*
X0217738Y0004952D01*
X0217676Y0004876D01*
X0217611Y0004803D01*
X0217543Y0004732D01*
X0217472Y0004664D01*
X0217399Y0004599D01*
X0217323Y0004537D01*
X0217244Y0004477D01*
X0217164Y0004421D01*
X0217081Y0004368D01*
X0216997Y0004319D01*
X0216910Y0004272D01*
X0216822Y0004230D01*
X0216732Y0004190D01*
X0216640Y0004155D01*
X0216548Y0004122D01*
X0216454Y0004094D01*
X0216359Y0004069D01*
X0216263Y0004048D01*
X0216166Y0004031D01*
X0216069Y0004017D01*
X0215971Y0004008D01*
X0215873Y0004002D01*
X0215775Y0004000D01*
X0118775Y0004000D01*
X0118677Y0004002D01*
X0118579Y0004008D01*
X0118481Y0004017D01*
X0118384Y0004031D01*
X0118287Y0004048D01*
X0118191Y0004069D01*
X0118096Y0004094D01*
X0118002Y0004122D01*
X0117910Y0004155D01*
X0117818Y0004190D01*
X0117728Y0004230D01*
X0117640Y0004272D01*
X0117553Y0004319D01*
X0117469Y0004368D01*
X0117386Y0004421D01*
X0117306Y0004477D01*
X0117227Y0004537D01*
X0117151Y0004599D01*
X0117078Y0004664D01*
X0117007Y0004732D01*
X0116939Y0004803D01*
X0116874Y0004876D01*
X0116812Y0004952D01*
X0116752Y0005031D01*
X0116696Y0005111D01*
X0116643Y0005194D01*
X0116594Y0005278D01*
X0116547Y0005365D01*
X0116505Y0005453D01*
X0116465Y0005543D01*
X0116430Y0005635D01*
X0116397Y0005727D01*
X0116369Y0005821D01*
X0116344Y0005916D01*
X0116323Y0006012D01*
X0116306Y0006109D01*
X0116292Y0006206D01*
X0116283Y0006304D01*
X0116277Y0006402D01*
X0116275Y0006500D01*
X0116275Y0055000D01*
X0108275Y0055000D01*
X0108275Y0006500D01*
X0108273Y0006402D01*
X0108267Y0006304D01*
X0108258Y0006206D01*
X0108244Y0006109D01*
X0108227Y0006012D01*
X0108206Y0005916D01*
X0108181Y0005821D01*
X0108153Y0005727D01*
X0108120Y0005635D01*
X0108085Y0005543D01*
X0108045Y0005453D01*
X0108003Y0005365D01*
X0107956Y0005278D01*
X0107907Y0005194D01*
X0107854Y0005111D01*
X0107798Y0005031D01*
X0107738Y0004952D01*
X0107676Y0004876D01*
X0107611Y0004803D01*
X0107543Y0004732D01*
X0107472Y0004664D01*
X0107399Y0004599D01*
X0107323Y0004537D01*
X0107244Y0004477D01*
X0107164Y0004421D01*
X0107081Y0004368D01*
X0106997Y0004319D01*
X0106910Y0004272D01*
X0106822Y0004230D01*
X0106732Y0004190D01*
X0106640Y0004155D01*
X0106548Y0004122D01*
X0106454Y0004094D01*
X0106359Y0004069D01*
X0106263Y0004048D01*
X0106166Y0004031D01*
X0106069Y0004017D01*
X0105971Y0004008D01*
X0105873Y0004002D01*
X0105775Y0004000D01*
X0008775Y0004000D01*
X0008677Y0004002D01*
X0008579Y0004008D01*
X0008481Y0004017D01*
X0008384Y0004031D01*
X0008287Y0004048D01*
X0008191Y0004069D01*
X0008096Y0004094D01*
X0008002Y0004122D01*
X0007910Y0004155D01*
X0007818Y0004190D01*
X0007728Y0004230D01*
X0007640Y0004272D01*
X0007553Y0004319D01*
X0007469Y0004368D01*
X0007386Y0004421D01*
X0007306Y0004477D01*
X0007227Y0004537D01*
X0007151Y0004599D01*
X0007078Y0004664D01*
X0007007Y0004732D01*
X0006939Y0004803D01*
X0006874Y0004876D01*
X0006812Y0004952D01*
X0006752Y0005031D01*
X0006696Y0005111D01*
X0006643Y0005194D01*
X0006594Y0005278D01*
X0006547Y0005365D01*
X0006505Y0005453D01*
X0006465Y0005543D01*
X0006430Y0005635D01*
X0006397Y0005727D01*
X0006369Y0005821D01*
X0006344Y0005916D01*
X0006323Y0006012D01*
X0006306Y0006109D01*
X0006292Y0006206D01*
X0006283Y0006304D01*
X0006277Y0006402D01*
X0006275Y0006500D01*
X0119519Y0195000D02*
X0119521Y0195105D01*
X0119527Y0195210D01*
X0119537Y0195314D01*
X0119551Y0195418D01*
X0119569Y0195522D01*
X0119591Y0195624D01*
X0119616Y0195726D01*
X0119646Y0195827D01*
X0119679Y0195926D01*
X0119716Y0196024D01*
X0119757Y0196121D01*
X0119802Y0196216D01*
X0119850Y0196309D01*
X0119901Y0196401D01*
X0119957Y0196490D01*
X0120015Y0196577D01*
X0120077Y0196662D01*
X0120141Y0196745D01*
X0120209Y0196825D01*
X0120280Y0196902D01*
X0120354Y0196976D01*
X0120431Y0197048D01*
X0120510Y0197117D01*
X0120592Y0197182D01*
X0120676Y0197245D01*
X0120763Y0197304D01*
X0120852Y0197360D01*
X0120943Y0197413D01*
X0121036Y0197462D01*
X0121130Y0197507D01*
X0121226Y0197549D01*
X0121324Y0197587D01*
X0121423Y0197621D01*
X0121524Y0197652D01*
X0121625Y0197678D01*
X0121728Y0197701D01*
X0121831Y0197720D01*
X0121935Y0197735D01*
X0122039Y0197746D01*
X0122144Y0197753D01*
X0122249Y0197756D01*
X0122354Y0197755D01*
X0122459Y0197750D01*
X0122563Y0197741D01*
X0122667Y0197728D01*
X0122771Y0197711D01*
X0122874Y0197690D01*
X0122976Y0197665D01*
X0123077Y0197637D01*
X0123176Y0197604D01*
X0123275Y0197568D01*
X0123372Y0197528D01*
X0123467Y0197485D01*
X0123561Y0197437D01*
X0123653Y0197387D01*
X0123743Y0197333D01*
X0123831Y0197275D01*
X0123916Y0197214D01*
X0123999Y0197150D01*
X0124080Y0197083D01*
X0124158Y0197013D01*
X0124233Y0196939D01*
X0124305Y0196864D01*
X0124375Y0196785D01*
X0124441Y0196704D01*
X0124505Y0196620D01*
X0124565Y0196534D01*
X0124621Y0196446D01*
X0124675Y0196355D01*
X0124725Y0196263D01*
X0124771Y0196169D01*
X0124814Y0196073D01*
X0124853Y0195975D01*
X0124888Y0195877D01*
X0124919Y0195776D01*
X0124947Y0195675D01*
X0124971Y0195573D01*
X0124991Y0195470D01*
X0125007Y0195366D01*
X0125019Y0195262D01*
X0125027Y0195157D01*
X0125031Y0195052D01*
X0125031Y0194948D01*
X0125027Y0194843D01*
X0125019Y0194738D01*
X0125007Y0194634D01*
X0124991Y0194530D01*
X0124971Y0194427D01*
X0124947Y0194325D01*
X0124919Y0194224D01*
X0124888Y0194123D01*
X0124853Y0194025D01*
X0124814Y0193927D01*
X0124771Y0193831D01*
X0124725Y0193737D01*
X0124675Y0193645D01*
X0124621Y0193554D01*
X0124565Y0193466D01*
X0124505Y0193380D01*
X0124441Y0193296D01*
X0124375Y0193215D01*
X0124305Y0193136D01*
X0124233Y0193061D01*
X0124158Y0192987D01*
X0124080Y0192917D01*
X0123999Y0192850D01*
X0123916Y0192786D01*
X0123831Y0192725D01*
X0123743Y0192667D01*
X0123653Y0192613D01*
X0123561Y0192563D01*
X0123467Y0192515D01*
X0123372Y0192472D01*
X0123275Y0192432D01*
X0123176Y0192396D01*
X0123077Y0192363D01*
X0122976Y0192335D01*
X0122874Y0192310D01*
X0122771Y0192289D01*
X0122667Y0192272D01*
X0122563Y0192259D01*
X0122459Y0192250D01*
X0122354Y0192245D01*
X0122249Y0192244D01*
X0122144Y0192247D01*
X0122039Y0192254D01*
X0121935Y0192265D01*
X0121831Y0192280D01*
X0121728Y0192299D01*
X0121625Y0192322D01*
X0121524Y0192348D01*
X0121423Y0192379D01*
X0121324Y0192413D01*
X0121226Y0192451D01*
X0121130Y0192493D01*
X0121036Y0192538D01*
X0120943Y0192587D01*
X0120852Y0192640D01*
X0120763Y0192696D01*
X0120676Y0192755D01*
X0120592Y0192818D01*
X0120510Y0192883D01*
X0120431Y0192952D01*
X0120354Y0193024D01*
X0120280Y0193098D01*
X0120209Y0193175D01*
X0120141Y0193255D01*
X0120077Y0193338D01*
X0120015Y0193423D01*
X0119957Y0193510D01*
X0119901Y0193599D01*
X0119850Y0193691D01*
X0119802Y0193784D01*
X0119757Y0193879D01*
X0119716Y0193976D01*
X0119679Y0194074D01*
X0119646Y0194173D01*
X0119616Y0194274D01*
X0119591Y0194376D01*
X0119569Y0194478D01*
X0119551Y0194582D01*
X0119537Y0194686D01*
X0119527Y0194790D01*
X0119521Y0194895D01*
X0119519Y0195000D01*
X0129322Y0195000D02*
X0129324Y0195108D01*
X0129330Y0195217D01*
X0129340Y0195325D01*
X0129354Y0195432D01*
X0129372Y0195539D01*
X0129393Y0195646D01*
X0129419Y0195751D01*
X0129449Y0195856D01*
X0129482Y0195959D01*
X0129519Y0196061D01*
X0129560Y0196161D01*
X0129604Y0196260D01*
X0129653Y0196358D01*
X0129704Y0196453D01*
X0129759Y0196546D01*
X0129818Y0196638D01*
X0129880Y0196727D01*
X0129945Y0196814D01*
X0130013Y0196898D01*
X0130084Y0196980D01*
X0130158Y0197059D01*
X0130235Y0197135D01*
X0130315Y0197209D01*
X0130398Y0197279D01*
X0130483Y0197347D01*
X0130570Y0197411D01*
X0130660Y0197472D01*
X0130752Y0197530D01*
X0130846Y0197584D01*
X0130942Y0197635D01*
X0131039Y0197682D01*
X0131139Y0197726D01*
X0131240Y0197766D01*
X0131342Y0197802D01*
X0131445Y0197834D01*
X0131550Y0197863D01*
X0131656Y0197887D01*
X0131762Y0197908D01*
X0131869Y0197925D01*
X0131977Y0197938D01*
X0132085Y0197947D01*
X0132194Y0197952D01*
X0132302Y0197953D01*
X0132411Y0197950D01*
X0132519Y0197943D01*
X0132627Y0197932D01*
X0132734Y0197917D01*
X0132841Y0197898D01*
X0132947Y0197875D01*
X0133052Y0197849D01*
X0133157Y0197818D01*
X0133259Y0197784D01*
X0133361Y0197746D01*
X0133461Y0197704D01*
X0133560Y0197659D01*
X0133657Y0197610D01*
X0133751Y0197557D01*
X0133844Y0197501D01*
X0133935Y0197442D01*
X0134024Y0197379D01*
X0134110Y0197314D01*
X0134194Y0197245D01*
X0134275Y0197173D01*
X0134353Y0197098D01*
X0134429Y0197020D01*
X0134502Y0196939D01*
X0134572Y0196856D01*
X0134638Y0196771D01*
X0134702Y0196683D01*
X0134762Y0196592D01*
X0134819Y0196500D01*
X0134872Y0196405D01*
X0134922Y0196309D01*
X0134968Y0196211D01*
X0135011Y0196111D01*
X0135050Y0196010D01*
X0135085Y0195907D01*
X0135117Y0195804D01*
X0135144Y0195699D01*
X0135168Y0195593D01*
X0135188Y0195486D01*
X0135204Y0195379D01*
X0135216Y0195271D01*
X0135224Y0195163D01*
X0135228Y0195054D01*
X0135228Y0194946D01*
X0135224Y0194837D01*
X0135216Y0194729D01*
X0135204Y0194621D01*
X0135188Y0194514D01*
X0135168Y0194407D01*
X0135144Y0194301D01*
X0135117Y0194196D01*
X0135085Y0194093D01*
X0135050Y0193990D01*
X0135011Y0193889D01*
X0134968Y0193789D01*
X0134922Y0193691D01*
X0134872Y0193595D01*
X0134819Y0193500D01*
X0134762Y0193408D01*
X0134702Y0193317D01*
X0134638Y0193229D01*
X0134572Y0193144D01*
X0134502Y0193061D01*
X0134429Y0192980D01*
X0134353Y0192902D01*
X0134275Y0192827D01*
X0134194Y0192755D01*
X0134110Y0192686D01*
X0134024Y0192621D01*
X0133935Y0192558D01*
X0133844Y0192499D01*
X0133752Y0192443D01*
X0133657Y0192390D01*
X0133560Y0192341D01*
X0133461Y0192296D01*
X0133361Y0192254D01*
X0133259Y0192216D01*
X0133157Y0192182D01*
X0133052Y0192151D01*
X0132947Y0192125D01*
X0132841Y0192102D01*
X0132734Y0192083D01*
X0132627Y0192068D01*
X0132519Y0192057D01*
X0132411Y0192050D01*
X0132302Y0192047D01*
X0132194Y0192048D01*
X0132085Y0192053D01*
X0131977Y0192062D01*
X0131869Y0192075D01*
X0131762Y0192092D01*
X0131656Y0192113D01*
X0131550Y0192137D01*
X0131445Y0192166D01*
X0131342Y0192198D01*
X0131240Y0192234D01*
X0131139Y0192274D01*
X0131039Y0192318D01*
X0130942Y0192365D01*
X0130846Y0192416D01*
X0130752Y0192470D01*
X0130660Y0192528D01*
X0130570Y0192589D01*
X0130483Y0192653D01*
X0130398Y0192721D01*
X0130315Y0192791D01*
X0130235Y0192865D01*
X0130158Y0192941D01*
X0130084Y0193020D01*
X0130013Y0193102D01*
X0129945Y0193186D01*
X0129880Y0193273D01*
X0129818Y0193362D01*
X0129759Y0193454D01*
X0129704Y0193547D01*
X0129653Y0193642D01*
X0129604Y0193740D01*
X0129560Y0193839D01*
X0129519Y0193939D01*
X0129482Y0194041D01*
X0129449Y0194144D01*
X0129419Y0194249D01*
X0129393Y0194354D01*
X0129372Y0194461D01*
X0129354Y0194568D01*
X0129340Y0194675D01*
X0129330Y0194783D01*
X0129324Y0194892D01*
X0129322Y0195000D01*
X0139125Y0195000D02*
X0139127Y0195112D01*
X0139133Y0195223D01*
X0139143Y0195335D01*
X0139157Y0195446D01*
X0139174Y0195556D01*
X0139196Y0195666D01*
X0139222Y0195775D01*
X0139251Y0195883D01*
X0139284Y0195989D01*
X0139321Y0196095D01*
X0139362Y0196199D01*
X0139407Y0196302D01*
X0139455Y0196403D01*
X0139506Y0196502D01*
X0139561Y0196599D01*
X0139620Y0196694D01*
X0139681Y0196788D01*
X0139746Y0196879D01*
X0139815Y0196967D01*
X0139886Y0197053D01*
X0139960Y0197137D01*
X0140038Y0197217D01*
X0140118Y0197295D01*
X0140201Y0197371D01*
X0140286Y0197443D01*
X0140374Y0197512D01*
X0140464Y0197578D01*
X0140557Y0197640D01*
X0140652Y0197700D01*
X0140749Y0197756D01*
X0140847Y0197808D01*
X0140948Y0197857D01*
X0141050Y0197902D01*
X0141154Y0197944D01*
X0141259Y0197982D01*
X0141366Y0198016D01*
X0141473Y0198046D01*
X0141582Y0198073D01*
X0141691Y0198095D01*
X0141802Y0198114D01*
X0141912Y0198129D01*
X0142024Y0198140D01*
X0142135Y0198147D01*
X0142247Y0198150D01*
X0142359Y0198149D01*
X0142471Y0198144D01*
X0142582Y0198135D01*
X0142693Y0198122D01*
X0142804Y0198105D01*
X0142914Y0198085D01*
X0143023Y0198060D01*
X0143131Y0198032D01*
X0143238Y0197999D01*
X0143344Y0197963D01*
X0143448Y0197923D01*
X0143551Y0197880D01*
X0143653Y0197833D01*
X0143752Y0197782D01*
X0143850Y0197728D01*
X0143946Y0197670D01*
X0144040Y0197609D01*
X0144131Y0197545D01*
X0144220Y0197478D01*
X0144307Y0197407D01*
X0144391Y0197333D01*
X0144473Y0197257D01*
X0144551Y0197177D01*
X0144627Y0197095D01*
X0144700Y0197010D01*
X0144770Y0196923D01*
X0144836Y0196833D01*
X0144900Y0196741D01*
X0144960Y0196647D01*
X0145017Y0196551D01*
X0145070Y0196452D01*
X0145120Y0196352D01*
X0145166Y0196251D01*
X0145209Y0196147D01*
X0145248Y0196042D01*
X0145283Y0195936D01*
X0145314Y0195829D01*
X0145342Y0195720D01*
X0145365Y0195611D01*
X0145385Y0195501D01*
X0145401Y0195390D01*
X0145413Y0195279D01*
X0145421Y0195168D01*
X0145425Y0195056D01*
X0145425Y0194944D01*
X0145421Y0194832D01*
X0145413Y0194721D01*
X0145401Y0194610D01*
X0145385Y0194499D01*
X0145365Y0194389D01*
X0145342Y0194280D01*
X0145314Y0194171D01*
X0145283Y0194064D01*
X0145248Y0193958D01*
X0145209Y0193853D01*
X0145166Y0193749D01*
X0145120Y0193648D01*
X0145070Y0193548D01*
X0145017Y0193449D01*
X0144960Y0193353D01*
X0144900Y0193259D01*
X0144836Y0193167D01*
X0144770Y0193077D01*
X0144700Y0192990D01*
X0144627Y0192905D01*
X0144551Y0192823D01*
X0144473Y0192743D01*
X0144391Y0192667D01*
X0144307Y0192593D01*
X0144220Y0192522D01*
X0144131Y0192455D01*
X0144040Y0192391D01*
X0143946Y0192330D01*
X0143850Y0192272D01*
X0143752Y0192218D01*
X0143653Y0192167D01*
X0143551Y0192120D01*
X0143448Y0192077D01*
X0143344Y0192037D01*
X0143238Y0192001D01*
X0143131Y0191968D01*
X0143023Y0191940D01*
X0142914Y0191915D01*
X0142804Y0191895D01*
X0142693Y0191878D01*
X0142582Y0191865D01*
X0142471Y0191856D01*
X0142359Y0191851D01*
X0142247Y0191850D01*
X0142135Y0191853D01*
X0142024Y0191860D01*
X0141912Y0191871D01*
X0141802Y0191886D01*
X0141691Y0191905D01*
X0141582Y0191927D01*
X0141473Y0191954D01*
X0141366Y0191984D01*
X0141259Y0192018D01*
X0141154Y0192056D01*
X0141050Y0192098D01*
X0140948Y0192143D01*
X0140847Y0192192D01*
X0140749Y0192244D01*
X0140652Y0192300D01*
X0140557Y0192360D01*
X0140464Y0192422D01*
X0140374Y0192488D01*
X0140286Y0192557D01*
X0140201Y0192629D01*
X0140118Y0192705D01*
X0140038Y0192783D01*
X0139960Y0192863D01*
X0139886Y0192947D01*
X0139815Y0193033D01*
X0139746Y0193121D01*
X0139681Y0193212D01*
X0139620Y0193306D01*
X0139561Y0193401D01*
X0139506Y0193498D01*
X0139455Y0193597D01*
X0139407Y0193698D01*
X0139362Y0193801D01*
X0139321Y0193905D01*
X0139284Y0194011D01*
X0139251Y0194117D01*
X0139222Y0194225D01*
X0139196Y0194334D01*
X0139174Y0194444D01*
X0139157Y0194554D01*
X0139143Y0194665D01*
X0139133Y0194777D01*
X0139127Y0194888D01*
X0139125Y0195000D01*
X0148338Y0195000D02*
X0148340Y0195125D01*
X0148346Y0195250D01*
X0148356Y0195374D01*
X0148370Y0195498D01*
X0148387Y0195622D01*
X0148409Y0195745D01*
X0148435Y0195867D01*
X0148464Y0195989D01*
X0148497Y0196109D01*
X0148535Y0196228D01*
X0148575Y0196347D01*
X0148620Y0196463D01*
X0148668Y0196578D01*
X0148720Y0196692D01*
X0148776Y0196804D01*
X0148835Y0196914D01*
X0148897Y0197022D01*
X0148963Y0197129D01*
X0149032Y0197233D01*
X0149105Y0197334D01*
X0149180Y0197434D01*
X0149259Y0197531D01*
X0149341Y0197625D01*
X0149426Y0197717D01*
X0149513Y0197806D01*
X0149604Y0197892D01*
X0149697Y0197975D01*
X0149793Y0198056D01*
X0149891Y0198133D01*
X0149991Y0198207D01*
X0150094Y0198278D01*
X0150199Y0198345D01*
X0150307Y0198410D01*
X0150416Y0198470D01*
X0150527Y0198528D01*
X0150640Y0198581D01*
X0150754Y0198631D01*
X0150870Y0198678D01*
X0150987Y0198720D01*
X0151106Y0198759D01*
X0151226Y0198795D01*
X0151347Y0198826D01*
X0151469Y0198854D01*
X0151591Y0198877D01*
X0151715Y0198897D01*
X0151839Y0198913D01*
X0151963Y0198925D01*
X0152088Y0198933D01*
X0152213Y0198937D01*
X0152337Y0198937D01*
X0152462Y0198933D01*
X0152587Y0198925D01*
X0152711Y0198913D01*
X0152835Y0198897D01*
X0152959Y0198877D01*
X0153081Y0198854D01*
X0153203Y0198826D01*
X0153324Y0198795D01*
X0153444Y0198759D01*
X0153563Y0198720D01*
X0153680Y0198678D01*
X0153796Y0198631D01*
X0153910Y0198581D01*
X0154023Y0198528D01*
X0154134Y0198470D01*
X0154244Y0198410D01*
X0154351Y0198345D01*
X0154456Y0198278D01*
X0154559Y0198207D01*
X0154659Y0198133D01*
X0154757Y0198056D01*
X0154853Y0197975D01*
X0154946Y0197892D01*
X0155037Y0197806D01*
X0155124Y0197717D01*
X0155209Y0197625D01*
X0155291Y0197531D01*
X0155370Y0197434D01*
X0155445Y0197334D01*
X0155518Y0197233D01*
X0155587Y0197129D01*
X0155653Y0197022D01*
X0155715Y0196914D01*
X0155774Y0196804D01*
X0155830Y0196692D01*
X0155882Y0196578D01*
X0155930Y0196463D01*
X0155975Y0196347D01*
X0156015Y0196228D01*
X0156053Y0196109D01*
X0156086Y0195989D01*
X0156115Y0195867D01*
X0156141Y0195745D01*
X0156163Y0195622D01*
X0156180Y0195498D01*
X0156194Y0195374D01*
X0156204Y0195250D01*
X0156210Y0195125D01*
X0156212Y0195000D01*
X0156210Y0194875D01*
X0156204Y0194750D01*
X0156194Y0194626D01*
X0156180Y0194502D01*
X0156163Y0194378D01*
X0156141Y0194255D01*
X0156115Y0194133D01*
X0156086Y0194011D01*
X0156053Y0193891D01*
X0156015Y0193772D01*
X0155975Y0193653D01*
X0155930Y0193537D01*
X0155882Y0193422D01*
X0155830Y0193308D01*
X0155774Y0193196D01*
X0155715Y0193086D01*
X0155653Y0192978D01*
X0155587Y0192871D01*
X0155518Y0192767D01*
X0155445Y0192666D01*
X0155370Y0192566D01*
X0155291Y0192469D01*
X0155209Y0192375D01*
X0155124Y0192283D01*
X0155037Y0192194D01*
X0154946Y0192108D01*
X0154853Y0192025D01*
X0154757Y0191944D01*
X0154659Y0191867D01*
X0154559Y0191793D01*
X0154456Y0191722D01*
X0154351Y0191655D01*
X0154243Y0191590D01*
X0154134Y0191530D01*
X0154023Y0191472D01*
X0153910Y0191419D01*
X0153796Y0191369D01*
X0153680Y0191322D01*
X0153563Y0191280D01*
X0153444Y0191241D01*
X0153324Y0191205D01*
X0153203Y0191174D01*
X0153081Y0191146D01*
X0152959Y0191123D01*
X0152835Y0191103D01*
X0152711Y0191087D01*
X0152587Y0191075D01*
X0152462Y0191067D01*
X0152337Y0191063D01*
X0152213Y0191063D01*
X0152088Y0191067D01*
X0151963Y0191075D01*
X0151839Y0191087D01*
X0151715Y0191103D01*
X0151591Y0191123D01*
X0151469Y0191146D01*
X0151347Y0191174D01*
X0151226Y0191205D01*
X0151106Y0191241D01*
X0150987Y0191280D01*
X0150870Y0191322D01*
X0150754Y0191369D01*
X0150640Y0191419D01*
X0150527Y0191472D01*
X0150416Y0191530D01*
X0150306Y0191590D01*
X0150199Y0191655D01*
X0150094Y0191722D01*
X0149991Y0191793D01*
X0149891Y0191867D01*
X0149793Y0191944D01*
X0149697Y0192025D01*
X0149604Y0192108D01*
X0149513Y0192194D01*
X0149426Y0192283D01*
X0149341Y0192375D01*
X0149259Y0192469D01*
X0149180Y0192566D01*
X0149105Y0192666D01*
X0149032Y0192767D01*
X0148963Y0192871D01*
X0148897Y0192978D01*
X0148835Y0193086D01*
X0148776Y0193196D01*
X0148720Y0193308D01*
X0148668Y0193422D01*
X0148620Y0193537D01*
X0148575Y0193653D01*
X0148535Y0193772D01*
X0148497Y0193891D01*
X0148464Y0194011D01*
X0148435Y0194133D01*
X0148409Y0194255D01*
X0148387Y0194378D01*
X0148370Y0194502D01*
X0148356Y0194626D01*
X0148346Y0194750D01*
X0148340Y0194875D01*
X0148338Y0195000D01*
X0157944Y0195000D02*
X0157946Y0195131D01*
X0157952Y0195263D01*
X0157962Y0195394D01*
X0157976Y0195525D01*
X0157994Y0195655D01*
X0158016Y0195784D01*
X0158041Y0195913D01*
X0158071Y0196041D01*
X0158105Y0196168D01*
X0158142Y0196295D01*
X0158183Y0196419D01*
X0158228Y0196543D01*
X0158277Y0196665D01*
X0158329Y0196786D01*
X0158385Y0196904D01*
X0158445Y0197022D01*
X0158508Y0197137D01*
X0158575Y0197250D01*
X0158645Y0197362D01*
X0158718Y0197471D01*
X0158794Y0197577D01*
X0158874Y0197682D01*
X0158957Y0197784D01*
X0159043Y0197883D01*
X0159132Y0197980D01*
X0159224Y0198074D01*
X0159319Y0198165D01*
X0159416Y0198254D01*
X0159516Y0198339D01*
X0159619Y0198421D01*
X0159724Y0198500D01*
X0159831Y0198576D01*
X0159941Y0198648D01*
X0160053Y0198717D01*
X0160167Y0198783D01*
X0160282Y0198845D01*
X0160400Y0198904D01*
X0160519Y0198959D01*
X0160640Y0199011D01*
X0160763Y0199058D01*
X0160887Y0199102D01*
X0161012Y0199143D01*
X0161138Y0199179D01*
X0161266Y0199212D01*
X0161394Y0199240D01*
X0161523Y0199265D01*
X0161653Y0199286D01*
X0161783Y0199303D01*
X0161914Y0199316D01*
X0162045Y0199325D01*
X0162176Y0199330D01*
X0162308Y0199331D01*
X0162439Y0199328D01*
X0162571Y0199321D01*
X0162702Y0199310D01*
X0162832Y0199295D01*
X0162962Y0199276D01*
X0163092Y0199253D01*
X0163220Y0199227D01*
X0163348Y0199196D01*
X0163475Y0199161D01*
X0163601Y0199123D01*
X0163725Y0199081D01*
X0163849Y0199035D01*
X0163970Y0198985D01*
X0164090Y0198932D01*
X0164209Y0198875D01*
X0164326Y0198815D01*
X0164440Y0198751D01*
X0164553Y0198683D01*
X0164664Y0198612D01*
X0164773Y0198538D01*
X0164879Y0198461D01*
X0164983Y0198380D01*
X0165084Y0198297D01*
X0165183Y0198210D01*
X0165279Y0198120D01*
X0165372Y0198027D01*
X0165463Y0197932D01*
X0165550Y0197834D01*
X0165635Y0197733D01*
X0165716Y0197630D01*
X0165794Y0197524D01*
X0165869Y0197416D01*
X0165941Y0197306D01*
X0166009Y0197194D01*
X0166074Y0197080D01*
X0166135Y0196963D01*
X0166193Y0196845D01*
X0166247Y0196725D01*
X0166298Y0196604D01*
X0166345Y0196481D01*
X0166388Y0196357D01*
X0166427Y0196232D01*
X0166463Y0196105D01*
X0166494Y0195977D01*
X0166522Y0195849D01*
X0166546Y0195720D01*
X0166566Y0195590D01*
X0166582Y0195459D01*
X0166594Y0195328D01*
X0166602Y0195197D01*
X0166606Y0195066D01*
X0166606Y0194934D01*
X0166602Y0194803D01*
X0166594Y0194672D01*
X0166582Y0194541D01*
X0166566Y0194410D01*
X0166546Y0194280D01*
X0166522Y0194151D01*
X0166494Y0194023D01*
X0166463Y0193895D01*
X0166427Y0193768D01*
X0166388Y0193643D01*
X0166345Y0193519D01*
X0166298Y0193396D01*
X0166247Y0193275D01*
X0166193Y0193155D01*
X0166135Y0193037D01*
X0166074Y0192920D01*
X0166009Y0192806D01*
X0165941Y0192694D01*
X0165869Y0192584D01*
X0165794Y0192476D01*
X0165716Y0192370D01*
X0165635Y0192267D01*
X0165550Y0192166D01*
X0165463Y0192068D01*
X0165372Y0191973D01*
X0165279Y0191880D01*
X0165183Y0191790D01*
X0165084Y0191703D01*
X0164983Y0191620D01*
X0164879Y0191539D01*
X0164773Y0191462D01*
X0164664Y0191388D01*
X0164553Y0191317D01*
X0164441Y0191249D01*
X0164326Y0191185D01*
X0164209Y0191125D01*
X0164090Y0191068D01*
X0163970Y0191015D01*
X0163849Y0190965D01*
X0163725Y0190919D01*
X0163601Y0190877D01*
X0163475Y0190839D01*
X0163348Y0190804D01*
X0163220Y0190773D01*
X0163092Y0190747D01*
X0162962Y0190724D01*
X0162832Y0190705D01*
X0162702Y0190690D01*
X0162571Y0190679D01*
X0162439Y0190672D01*
X0162308Y0190669D01*
X0162176Y0190670D01*
X0162045Y0190675D01*
X0161914Y0190684D01*
X0161783Y0190697D01*
X0161653Y0190714D01*
X0161523Y0190735D01*
X0161394Y0190760D01*
X0161266Y0190788D01*
X0161138Y0190821D01*
X0161012Y0190857D01*
X0160887Y0190898D01*
X0160763Y0190942D01*
X0160640Y0190989D01*
X0160519Y0191041D01*
X0160400Y0191096D01*
X0160282Y0191155D01*
X0160167Y0191217D01*
X0160053Y0191283D01*
X0159941Y0191352D01*
X0159831Y0191424D01*
X0159724Y0191500D01*
X0159619Y0191579D01*
X0159516Y0191661D01*
X0159416Y0191746D01*
X0159319Y0191835D01*
X0159224Y0191926D01*
X0159132Y0192020D01*
X0159043Y0192117D01*
X0158957Y0192216D01*
X0158874Y0192318D01*
X0158794Y0192423D01*
X0158718Y0192529D01*
X0158645Y0192638D01*
X0158575Y0192750D01*
X0158508Y0192863D01*
X0158445Y0192978D01*
X0158385Y0193096D01*
X0158329Y0193214D01*
X0158277Y0193335D01*
X0158228Y0193457D01*
X0158183Y0193581D01*
X0158142Y0193705D01*
X0158105Y0193832D01*
X0158071Y0193959D01*
X0158041Y0194087D01*
X0158016Y0194216D01*
X0157994Y0194345D01*
X0157976Y0194475D01*
X0157962Y0194606D01*
X0157952Y0194737D01*
X0157946Y0194869D01*
X0157944Y0195000D01*
X0171763Y0195000D02*
X0171765Y0195148D01*
X0171771Y0195296D01*
X0171781Y0195444D01*
X0171795Y0195591D01*
X0171813Y0195738D01*
X0171834Y0195884D01*
X0171860Y0196030D01*
X0171890Y0196175D01*
X0171923Y0196319D01*
X0171961Y0196462D01*
X0172002Y0196604D01*
X0172047Y0196745D01*
X0172095Y0196885D01*
X0172148Y0197024D01*
X0172204Y0197161D01*
X0172264Y0197296D01*
X0172327Y0197430D01*
X0172394Y0197562D01*
X0172465Y0197692D01*
X0172539Y0197820D01*
X0172616Y0197946D01*
X0172697Y0198070D01*
X0172781Y0198192D01*
X0172868Y0198311D01*
X0172959Y0198428D01*
X0173053Y0198543D01*
X0173149Y0198655D01*
X0173249Y0198765D01*
X0173351Y0198871D01*
X0173457Y0198975D01*
X0173565Y0199076D01*
X0173676Y0199174D01*
X0173789Y0199270D01*
X0173905Y0199362D01*
X0174023Y0199451D01*
X0174144Y0199536D01*
X0174267Y0199619D01*
X0174392Y0199698D01*
X0174519Y0199774D01*
X0174648Y0199846D01*
X0174779Y0199915D01*
X0174912Y0199980D01*
X0175047Y0200041D01*
X0175183Y0200099D01*
X0175320Y0200154D01*
X0175459Y0200204D01*
X0175600Y0200251D01*
X0175741Y0200294D01*
X0175884Y0200334D01*
X0176028Y0200369D01*
X0176172Y0200401D01*
X0176318Y0200428D01*
X0176464Y0200452D01*
X0176611Y0200472D01*
X0176758Y0200488D01*
X0176905Y0200500D01*
X0177053Y0200508D01*
X0177201Y0200512D01*
X0177349Y0200512D01*
X0177497Y0200508D01*
X0177645Y0200500D01*
X0177792Y0200488D01*
X0177939Y0200472D01*
X0178086Y0200452D01*
X0178232Y0200428D01*
X0178378Y0200401D01*
X0178522Y0200369D01*
X0178666Y0200334D01*
X0178809Y0200294D01*
X0178950Y0200251D01*
X0179091Y0200204D01*
X0179230Y0200154D01*
X0179367Y0200099D01*
X0179503Y0200041D01*
X0179638Y0199980D01*
X0179771Y0199915D01*
X0179902Y0199846D01*
X0180031Y0199774D01*
X0180158Y0199698D01*
X0180283Y0199619D01*
X0180406Y0199536D01*
X0180527Y0199451D01*
X0180645Y0199362D01*
X0180761Y0199270D01*
X0180874Y0199174D01*
X0180985Y0199076D01*
X0181093Y0198975D01*
X0181199Y0198871D01*
X0181301Y0198765D01*
X0181401Y0198655D01*
X0181497Y0198543D01*
X0181591Y0198428D01*
X0181682Y0198311D01*
X0181769Y0198192D01*
X0181853Y0198070D01*
X0181934Y0197946D01*
X0182011Y0197820D01*
X0182085Y0197692D01*
X0182156Y0197562D01*
X0182223Y0197430D01*
X0182286Y0197296D01*
X0182346Y0197161D01*
X0182402Y0197024D01*
X0182455Y0196885D01*
X0182503Y0196745D01*
X0182548Y0196604D01*
X0182589Y0196462D01*
X0182627Y0196319D01*
X0182660Y0196175D01*
X0182690Y0196030D01*
X0182716Y0195884D01*
X0182737Y0195738D01*
X0182755Y0195591D01*
X0182769Y0195444D01*
X0182779Y0195296D01*
X0182785Y0195148D01*
X0182787Y0195000D01*
X0182785Y0194852D01*
X0182779Y0194704D01*
X0182769Y0194556D01*
X0182755Y0194409D01*
X0182737Y0194262D01*
X0182716Y0194116D01*
X0182690Y0193970D01*
X0182660Y0193825D01*
X0182627Y0193681D01*
X0182589Y0193538D01*
X0182548Y0193396D01*
X0182503Y0193255D01*
X0182455Y0193115D01*
X0182402Y0192976D01*
X0182346Y0192839D01*
X0182286Y0192704D01*
X0182223Y0192570D01*
X0182156Y0192438D01*
X0182085Y0192308D01*
X0182011Y0192180D01*
X0181934Y0192054D01*
X0181853Y0191930D01*
X0181769Y0191808D01*
X0181682Y0191689D01*
X0181591Y0191572D01*
X0181497Y0191457D01*
X0181401Y0191345D01*
X0181301Y0191235D01*
X0181199Y0191129D01*
X0181093Y0191025D01*
X0180985Y0190924D01*
X0180874Y0190826D01*
X0180761Y0190730D01*
X0180645Y0190638D01*
X0180527Y0190549D01*
X0180406Y0190464D01*
X0180283Y0190381D01*
X0180158Y0190302D01*
X0180031Y0190226D01*
X0179902Y0190154D01*
X0179771Y0190085D01*
X0179638Y0190020D01*
X0179503Y0189959D01*
X0179367Y0189901D01*
X0179230Y0189846D01*
X0179091Y0189796D01*
X0178950Y0189749D01*
X0178809Y0189706D01*
X0178666Y0189666D01*
X0178522Y0189631D01*
X0178378Y0189599D01*
X0178232Y0189572D01*
X0178086Y0189548D01*
X0177939Y0189528D01*
X0177792Y0189512D01*
X0177645Y0189500D01*
X0177497Y0189492D01*
X0177349Y0189488D01*
X0177201Y0189488D01*
X0177053Y0189492D01*
X0176905Y0189500D01*
X0176758Y0189512D01*
X0176611Y0189528D01*
X0176464Y0189548D01*
X0176318Y0189572D01*
X0176172Y0189599D01*
X0176028Y0189631D01*
X0175884Y0189666D01*
X0175741Y0189706D01*
X0175600Y0189749D01*
X0175459Y0189796D01*
X0175320Y0189846D01*
X0175183Y0189901D01*
X0175047Y0189959D01*
X0174912Y0190020D01*
X0174779Y0190085D01*
X0174648Y0190154D01*
X0174519Y0190226D01*
X0174392Y0190302D01*
X0174267Y0190381D01*
X0174144Y0190464D01*
X0174023Y0190549D01*
X0173905Y0190638D01*
X0173789Y0190730D01*
X0173676Y0190826D01*
X0173565Y0190924D01*
X0173457Y0191025D01*
X0173351Y0191129D01*
X0173249Y0191235D01*
X0173149Y0191345D01*
X0173053Y0191457D01*
X0172959Y0191572D01*
X0172868Y0191689D01*
X0172781Y0191808D01*
X0172697Y0191930D01*
X0172616Y0192054D01*
X0172539Y0192180D01*
X0172465Y0192308D01*
X0172394Y0192438D01*
X0172327Y0192570D01*
X0172264Y0192704D01*
X0172204Y0192839D01*
X0172148Y0192976D01*
X0172095Y0193115D01*
X0172047Y0193255D01*
X0172002Y0193396D01*
X0171961Y0193538D01*
X0171923Y0193681D01*
X0171890Y0193825D01*
X0171860Y0193970D01*
X0171834Y0194116D01*
X0171813Y0194262D01*
X0171795Y0194409D01*
X0171781Y0194556D01*
X0171771Y0194704D01*
X0171765Y0194852D01*
X0171763Y0195000D01*
X0185976Y0195000D02*
X0185978Y0195158D01*
X0185984Y0195316D01*
X0185994Y0195474D01*
X0186008Y0195632D01*
X0186026Y0195789D01*
X0186047Y0195946D01*
X0186073Y0196102D01*
X0186103Y0196258D01*
X0186136Y0196413D01*
X0186174Y0196566D01*
X0186215Y0196719D01*
X0186260Y0196871D01*
X0186309Y0197022D01*
X0186362Y0197171D01*
X0186418Y0197319D01*
X0186478Y0197465D01*
X0186542Y0197610D01*
X0186610Y0197753D01*
X0186681Y0197895D01*
X0186755Y0198035D01*
X0186833Y0198172D01*
X0186915Y0198308D01*
X0186999Y0198442D01*
X0187088Y0198573D01*
X0187179Y0198702D01*
X0187274Y0198829D01*
X0187371Y0198954D01*
X0187472Y0199076D01*
X0187576Y0199195D01*
X0187683Y0199312D01*
X0187793Y0199426D01*
X0187906Y0199537D01*
X0188021Y0199646D01*
X0188139Y0199751D01*
X0188260Y0199853D01*
X0188383Y0199953D01*
X0188509Y0200049D01*
X0188637Y0200142D01*
X0188767Y0200232D01*
X0188900Y0200318D01*
X0189035Y0200402D01*
X0189171Y0200481D01*
X0189310Y0200558D01*
X0189451Y0200630D01*
X0189593Y0200700D01*
X0189737Y0200765D01*
X0189883Y0200827D01*
X0190030Y0200885D01*
X0190179Y0200940D01*
X0190329Y0200991D01*
X0190480Y0201038D01*
X0190632Y0201081D01*
X0190785Y0201120D01*
X0190940Y0201156D01*
X0191095Y0201187D01*
X0191251Y0201215D01*
X0191407Y0201239D01*
X0191564Y0201259D01*
X0191722Y0201275D01*
X0191879Y0201287D01*
X0192038Y0201295D01*
X0192196Y0201299D01*
X0192354Y0201299D01*
X0192512Y0201295D01*
X0192671Y0201287D01*
X0192828Y0201275D01*
X0192986Y0201259D01*
X0193143Y0201239D01*
X0193299Y0201215D01*
X0193455Y0201187D01*
X0193610Y0201156D01*
X0193765Y0201120D01*
X0193918Y0201081D01*
X0194070Y0201038D01*
X0194221Y0200991D01*
X0194371Y0200940D01*
X0194520Y0200885D01*
X0194667Y0200827D01*
X0194813Y0200765D01*
X0194957Y0200700D01*
X0195099Y0200630D01*
X0195240Y0200558D01*
X0195379Y0200481D01*
X0195515Y0200402D01*
X0195650Y0200318D01*
X0195783Y0200232D01*
X0195913Y0200142D01*
X0196041Y0200049D01*
X0196167Y0199953D01*
X0196290Y0199853D01*
X0196411Y0199751D01*
X0196529Y0199646D01*
X0196644Y0199537D01*
X0196757Y0199426D01*
X0196867Y0199312D01*
X0196974Y0199195D01*
X0197078Y0199076D01*
X0197179Y0198954D01*
X0197276Y0198829D01*
X0197371Y0198702D01*
X0197462Y0198573D01*
X0197551Y0198442D01*
X0197635Y0198308D01*
X0197717Y0198172D01*
X0197795Y0198035D01*
X0197869Y0197895D01*
X0197940Y0197753D01*
X0198008Y0197610D01*
X0198072Y0197465D01*
X0198132Y0197319D01*
X0198188Y0197171D01*
X0198241Y0197022D01*
X0198290Y0196871D01*
X0198335Y0196719D01*
X0198376Y0196566D01*
X0198414Y0196413D01*
X0198447Y0196258D01*
X0198477Y0196102D01*
X0198503Y0195946D01*
X0198524Y0195789D01*
X0198542Y0195632D01*
X0198556Y0195474D01*
X0198566Y0195316D01*
X0198572Y0195158D01*
X0198574Y0195000D01*
X0198572Y0194842D01*
X0198566Y0194684D01*
X0198556Y0194526D01*
X0198542Y0194368D01*
X0198524Y0194211D01*
X0198503Y0194054D01*
X0198477Y0193898D01*
X0198447Y0193742D01*
X0198414Y0193587D01*
X0198376Y0193434D01*
X0198335Y0193281D01*
X0198290Y0193129D01*
X0198241Y0192978D01*
X0198188Y0192829D01*
X0198132Y0192681D01*
X0198072Y0192535D01*
X0198008Y0192390D01*
X0197940Y0192247D01*
X0197869Y0192105D01*
X0197795Y0191965D01*
X0197717Y0191828D01*
X0197635Y0191692D01*
X0197551Y0191558D01*
X0197462Y0191427D01*
X0197371Y0191298D01*
X0197276Y0191171D01*
X0197179Y0191046D01*
X0197078Y0190924D01*
X0196974Y0190805D01*
X0196867Y0190688D01*
X0196757Y0190574D01*
X0196644Y0190463D01*
X0196529Y0190354D01*
X0196411Y0190249D01*
X0196290Y0190147D01*
X0196167Y0190047D01*
X0196041Y0189951D01*
X0195913Y0189858D01*
X0195783Y0189768D01*
X0195650Y0189682D01*
X0195515Y0189598D01*
X0195379Y0189519D01*
X0195240Y0189442D01*
X0195099Y0189370D01*
X0194957Y0189300D01*
X0194813Y0189235D01*
X0194667Y0189173D01*
X0194520Y0189115D01*
X0194371Y0189060D01*
X0194221Y0189009D01*
X0194070Y0188962D01*
X0193918Y0188919D01*
X0193765Y0188880D01*
X0193610Y0188844D01*
X0193455Y0188813D01*
X0193299Y0188785D01*
X0193143Y0188761D01*
X0192986Y0188741D01*
X0192828Y0188725D01*
X0192671Y0188713D01*
X0192512Y0188705D01*
X0192354Y0188701D01*
X0192196Y0188701D01*
X0192038Y0188705D01*
X0191879Y0188713D01*
X0191722Y0188725D01*
X0191564Y0188741D01*
X0191407Y0188761D01*
X0191251Y0188785D01*
X0191095Y0188813D01*
X0190940Y0188844D01*
X0190785Y0188880D01*
X0190632Y0188919D01*
X0190480Y0188962D01*
X0190329Y0189009D01*
X0190179Y0189060D01*
X0190030Y0189115D01*
X0189883Y0189173D01*
X0189737Y0189235D01*
X0189593Y0189300D01*
X0189451Y0189370D01*
X0189310Y0189442D01*
X0189171Y0189519D01*
X0189035Y0189598D01*
X0188900Y0189682D01*
X0188767Y0189768D01*
X0188637Y0189858D01*
X0188509Y0189951D01*
X0188383Y0190047D01*
X0188260Y0190147D01*
X0188139Y0190249D01*
X0188021Y0190354D01*
X0187906Y0190463D01*
X0187793Y0190574D01*
X0187683Y0190688D01*
X0187576Y0190805D01*
X0187472Y0190924D01*
X0187371Y0191046D01*
X0187274Y0191171D01*
X0187179Y0191298D01*
X0187088Y0191427D01*
X0186999Y0191558D01*
X0186915Y0191692D01*
X0186833Y0191828D01*
X0186755Y0191965D01*
X0186681Y0192105D01*
X0186610Y0192247D01*
X0186542Y0192390D01*
X0186478Y0192535D01*
X0186418Y0192681D01*
X0186362Y0192829D01*
X0186309Y0192978D01*
X0186260Y0193129D01*
X0186215Y0193281D01*
X0186174Y0193434D01*
X0186136Y0193587D01*
X0186103Y0193742D01*
X0186073Y0193898D01*
X0186047Y0194054D01*
X0186026Y0194211D01*
X0186008Y0194368D01*
X0185994Y0194526D01*
X0185984Y0194684D01*
X0185978Y0194842D01*
X0185976Y0195000D01*
D11*
X0118775Y0106000D02*
X0118677Y0105998D01*
X0118579Y0105992D01*
X0118481Y0105983D01*
X0118384Y0105969D01*
X0118287Y0105952D01*
X0118191Y0105931D01*
X0118096Y0105906D01*
X0118002Y0105878D01*
X0117910Y0105845D01*
X0117818Y0105810D01*
X0117728Y0105770D01*
X0117640Y0105728D01*
X0117553Y0105681D01*
X0117469Y0105632D01*
X0117386Y0105579D01*
X0117306Y0105523D01*
X0117227Y0105463D01*
X0117151Y0105401D01*
X0117078Y0105336D01*
X0117007Y0105268D01*
X0116939Y0105197D01*
X0116874Y0105124D01*
X0116812Y0105048D01*
X0116752Y0104969D01*
X0116696Y0104889D01*
X0116643Y0104806D01*
X0116594Y0104722D01*
X0116547Y0104635D01*
X0116505Y0104547D01*
X0116465Y0104457D01*
X0116430Y0104365D01*
X0116397Y0104273D01*
X0116369Y0104179D01*
X0116344Y0104084D01*
X0116323Y0103988D01*
X0116306Y0103891D01*
X0116292Y0103794D01*
X0116283Y0103696D01*
X0116277Y0103598D01*
X0116275Y0103500D01*
D12*
X0122275Y0100000D03*
X0132275Y0100000D03*
X0142275Y0100000D03*
X0152275Y0100000D03*
X0162275Y0100000D03*
X0172275Y0100000D03*
X0182275Y0100000D03*
X0212275Y0070000D03*
X0212275Y0060000D03*
X0212275Y0050000D03*
X0212275Y0040000D03*
X0212275Y0030000D03*
X0212275Y0020000D03*
X0212275Y0010000D03*
X0232275Y0010000D03*
X0242275Y0010000D03*
X0252275Y0010000D03*
X0262275Y0010000D03*
X0272275Y0010000D03*
X0282275Y0010000D03*
X0292275Y0010000D03*
X0322275Y0010000D03*
X0322275Y0020000D03*
X0322275Y0030000D03*
X0322275Y0040000D03*
X0322275Y0050000D03*
X0322275Y0060000D03*
X0322275Y0070000D03*
X0292275Y0100000D03*
X0282275Y0100000D03*
X0272275Y0100000D03*
X0262275Y0100000D03*
X0252275Y0100000D03*
X0242275Y0100000D03*
X0232275Y0100000D03*
X0232275Y0120000D03*
X0242275Y0120000D03*
X0242275Y0130000D03*
X0252275Y0130000D03*
X0252275Y0120000D03*
X0262275Y0120000D03*
X0262275Y0130000D03*
X0272275Y0130000D03*
X0272275Y0120000D03*
X0282275Y0120000D03*
X0282275Y0130000D03*
X0292275Y0130000D03*
X0292275Y0120000D03*
X0302275Y0130000D03*
X0312275Y0130000D03*
X0312275Y0140000D03*
X0322275Y0140000D03*
X0322275Y0130000D03*
X0322275Y0120000D03*
X0297275Y0145000D03*
X0287275Y0145000D03*
X0277275Y0145000D03*
X0267275Y0145000D03*
X0257275Y0145000D03*
X0247275Y0145000D03*
X0237275Y0145000D03*
X0237275Y0155000D03*
X0237275Y0165000D03*
X0237275Y0175000D03*
X0237275Y0185000D03*
X0247275Y0185000D03*
X0247275Y0175000D03*
X0247275Y0165000D03*
X0247275Y0155000D03*
X0257275Y0155000D03*
X0257275Y0165000D03*
X0257275Y0175000D03*
X0257275Y0185000D03*
X0267275Y0185000D03*
X0267275Y0175000D03*
X0267275Y0165000D03*
X0267275Y0155000D03*
X0277275Y0155000D03*
X0277275Y0165000D03*
X0277275Y0175000D03*
X0277275Y0185000D03*
X0287275Y0185000D03*
X0287275Y0175000D03*
X0287275Y0165000D03*
X0287275Y0155000D03*
X0297275Y0155000D03*
X0297275Y0165000D03*
X0297275Y0175000D03*
X0297275Y0185000D03*
X0307275Y0185000D03*
X0307275Y0175000D03*
X0307275Y0165000D03*
X0307275Y0155000D03*
X0322275Y0150000D03*
X0322275Y0160000D03*
X0322275Y0170000D03*
X0322275Y0180000D03*
X0312275Y0200000D03*
X0302275Y0200000D03*
X0292275Y0200000D03*
X0282275Y0200000D03*
X0272275Y0200000D03*
X0262275Y0200000D03*
X0252275Y0200000D03*
X0242275Y0200000D03*
X0242275Y0210000D03*
X0232275Y0210000D03*
X0232275Y0230000D03*
X0242275Y0230000D03*
X0242275Y0240000D03*
X0252275Y0240000D03*
X0252275Y0230000D03*
X0262275Y0230000D03*
X0262275Y0240000D03*
X0272275Y0240000D03*
X0272275Y0230000D03*
X0282275Y0230000D03*
X0282275Y0240000D03*
X0292275Y0240000D03*
X0292275Y0230000D03*
X0302275Y0240000D03*
X0312275Y0240000D03*
X0312275Y0250000D03*
X0322275Y0250000D03*
X0322275Y0240000D03*
X0322275Y0230000D03*
X0297275Y0255000D03*
X0287275Y0255000D03*
X0277275Y0255000D03*
X0267275Y0255000D03*
X0257275Y0255000D03*
X0247275Y0255000D03*
X0237275Y0255000D03*
X0237275Y0265000D03*
X0237275Y0275000D03*
X0237275Y0285000D03*
X0237275Y0295000D03*
X0247275Y0295000D03*
X0247275Y0285000D03*
X0247275Y0275000D03*
X0247275Y0265000D03*
X0257275Y0265000D03*
X0257275Y0275000D03*
X0257275Y0285000D03*
X0257275Y0295000D03*
X0267275Y0295000D03*
X0267275Y0285000D03*
X0267275Y0275000D03*
X0267275Y0265000D03*
X0277275Y0265000D03*
X0277275Y0275000D03*
X0277275Y0285000D03*
X0277275Y0295000D03*
X0287275Y0295000D03*
X0287275Y0285000D03*
X0287275Y0275000D03*
X0287275Y0265000D03*
X0297275Y0265000D03*
X0297275Y0275000D03*
X0297275Y0285000D03*
X0297275Y0295000D03*
X0307275Y0295000D03*
X0307275Y0285000D03*
X0307275Y0275000D03*
X0307275Y0265000D03*
X0322275Y0260000D03*
X0322275Y0270000D03*
X0322275Y0280000D03*
X0322275Y0290000D03*
X0312275Y0310000D03*
X0302275Y0310000D03*
X0292275Y0310000D03*
X0282275Y0310000D03*
X0272275Y0310000D03*
X0262275Y0310000D03*
X0252275Y0310000D03*
X0242275Y0310000D03*
X0242275Y0320000D03*
X0232275Y0320000D03*
X0252275Y0320000D03*
X0262275Y0320000D03*
X0272275Y0320000D03*
X0282275Y0320000D03*
X0292275Y0320000D03*
X0212275Y0290000D03*
X0212275Y0280000D03*
X0212275Y0270000D03*
X0212275Y0260000D03*
X0212275Y0250000D03*
X0202275Y0250000D03*
X0202275Y0240000D03*
X0192275Y0240000D03*
X0182275Y0240000D03*
X0172275Y0240000D03*
X0162275Y0240000D03*
X0152275Y0240000D03*
X0142275Y0240000D03*
X0132275Y0240000D03*
X0132275Y0230000D03*
X0122275Y0230000D03*
X0102275Y0230000D03*
X0102275Y0240000D03*
X0102275Y0250000D03*
X0102275Y0260000D03*
X0102275Y0270000D03*
X0102275Y0280000D03*
X0102275Y0290000D03*
X0127275Y0285000D03*
X0127275Y0275000D03*
X0127275Y0265000D03*
X0137275Y0265000D03*
X0137275Y0275000D03*
X0137275Y0285000D03*
X0137275Y0295000D03*
X0127275Y0295000D03*
X0132275Y0310000D03*
X0132275Y0320000D03*
X0122275Y0320000D03*
X0142275Y0320000D03*
X0142275Y0310000D03*
X0152275Y0310000D03*
X0152275Y0320000D03*
X0162275Y0320000D03*
X0162275Y0310000D03*
X0172275Y0310000D03*
X0172275Y0320000D03*
X0182275Y0320000D03*
X0182275Y0310000D03*
X0192275Y0310000D03*
X0202275Y0310000D03*
X0197275Y0295000D03*
X0187275Y0295000D03*
X0177275Y0295000D03*
X0167275Y0295000D03*
X0157275Y0295000D03*
X0147275Y0295000D03*
X0147275Y0285000D03*
X0147275Y0275000D03*
X0147275Y0265000D03*
X0157275Y0265000D03*
X0157275Y0275000D03*
X0157275Y0285000D03*
X0167275Y0285000D03*
X0167275Y0275000D03*
X0167275Y0265000D03*
X0177275Y0265000D03*
X0177275Y0275000D03*
X0177275Y0285000D03*
X0187275Y0285000D03*
X0187275Y0275000D03*
X0187275Y0265000D03*
X0197275Y0265000D03*
X0197275Y0275000D03*
X0197275Y0285000D03*
X0187275Y0255000D03*
X0177275Y0255000D03*
X0167275Y0255000D03*
X0157275Y0255000D03*
X0147275Y0255000D03*
X0137275Y0255000D03*
X0127275Y0255000D03*
X0142275Y0230000D03*
X0152275Y0230000D03*
X0162275Y0230000D03*
X0172275Y0230000D03*
X0182275Y0230000D03*
X0212275Y0230000D03*
X0212275Y0240000D03*
X0252275Y0210000D03*
X0262275Y0210000D03*
X0272275Y0210000D03*
X0282275Y0210000D03*
X0292275Y0210000D03*
X0102275Y0180000D03*
X0102275Y0170000D03*
X0102275Y0160000D03*
X0102275Y0150000D03*
X0102275Y0140000D03*
X0102275Y0130000D03*
X0102275Y0120000D03*
X0072275Y0120000D03*
X0062275Y0120000D03*
X0052275Y0120000D03*
X0042275Y0120000D03*
X0032275Y0120000D03*
X0022275Y0120000D03*
X0012275Y0120000D03*
X0012275Y0100000D03*
X0022275Y0100000D03*
X0032275Y0100000D03*
X0042275Y0100000D03*
X0052275Y0100000D03*
X0062275Y0100000D03*
X0072275Y0100000D03*
X0102275Y0070000D03*
X0102275Y0060000D03*
X0102275Y0050000D03*
X0102275Y0040000D03*
X0102275Y0030000D03*
X0102275Y0020000D03*
X0102275Y0010000D03*
X0122275Y0010000D03*
X0132275Y0010000D03*
X0142275Y0010000D03*
X0152275Y0010000D03*
X0162275Y0010000D03*
X0172275Y0010000D03*
X0182275Y0010000D03*
X0072275Y0010000D03*
X0062275Y0010000D03*
X0052275Y0010000D03*
X0042275Y0010000D03*
X0032275Y0010000D03*
X0022275Y0010000D03*
X0012275Y0010000D03*
X0012275Y0210000D03*
X0022275Y0210000D03*
X0032275Y0210000D03*
X0042275Y0210000D03*
X0052275Y0210000D03*
X0062275Y0210000D03*
X0072275Y0210000D03*
X0072275Y0230000D03*
X0062275Y0230000D03*
X0052275Y0230000D03*
X0042275Y0230000D03*
X0032275Y0230000D03*
X0022275Y0230000D03*
X0012275Y0230000D03*
X0012275Y0320000D03*
X0022275Y0320000D03*
X0032275Y0320000D03*
X0042275Y0320000D03*
X0052275Y0320000D03*
X0062275Y0320000D03*
X0072275Y0320000D03*
D13*
X0082275Y0320000D03*
X0092275Y0320000D03*
X0102275Y0320000D03*
X0102275Y0310000D03*
X0102275Y0300000D03*
X0092275Y0230000D03*
X0082275Y0230000D03*
X0082275Y0210000D03*
X0092275Y0210000D03*
X0102275Y0210000D03*
X0102275Y0200000D03*
X0102275Y0190000D03*
X0092275Y0120000D03*
X0082275Y0120000D03*
X0082275Y0100000D03*
X0092275Y0100000D03*
X0102275Y0100000D03*
X0102275Y0090000D03*
X0102275Y0080000D03*
X0092275Y0010000D03*
X0082275Y0010000D03*
X0192275Y0010000D03*
X0202275Y0010000D03*
X0212275Y0080000D03*
X0212275Y0090000D03*
X0212275Y0100000D03*
X0202275Y0100000D03*
X0192275Y0100000D03*
X0302275Y0100000D03*
X0312275Y0100000D03*
X0322275Y0100000D03*
X0322275Y0090000D03*
X0322275Y0080000D03*
X0312275Y0120000D03*
X0302275Y0120000D03*
X0322275Y0190000D03*
X0322275Y0200000D03*
X0322275Y0210000D03*
X0312275Y0210000D03*
X0302275Y0210000D03*
X0302275Y0230000D03*
X0312275Y0230000D03*
X0322275Y0300000D03*
X0322275Y0310000D03*
X0322275Y0320000D03*
X0312275Y0320000D03*
X0302275Y0320000D03*
X0212275Y0320000D03*
X0202275Y0320000D03*
X0192275Y0320000D03*
X0212275Y0310000D03*
X0212275Y0300000D03*
X0202275Y0230000D03*
X0192275Y0230000D03*
X0302275Y0010000D03*
X0312275Y0010000D03*
D14*
X0292275Y0021260D03*
X0292275Y0028740D03*
X0072275Y0028740D03*
X0072275Y0021260D03*
X0062275Y0021260D03*
X0062275Y0028740D03*
X0052275Y0028740D03*
X0052275Y0021260D03*
X0034775Y0078760D03*
X0034775Y0086240D03*
X0024775Y0086240D03*
X0024775Y0078760D03*
X0058775Y0149260D03*
X0058775Y0156740D03*
X0035775Y0159760D03*
X0035775Y0167240D03*
D15*
X0014835Y0092087D03*
X0009716Y0092087D03*
X0009716Y0077913D03*
X0014835Y0077913D03*
D16*
X0084283Y0070555D03*
X0084283Y0065555D03*
X0084283Y0060555D03*
X0084283Y0055500D03*
X0084283Y0050445D03*
D17*
X0060268Y0060000D03*
D18*
X0081764Y0080000D03*
X0092787Y0080000D03*
X0092787Y0020000D03*
X0081764Y0020000D03*
X0068787Y0140000D03*
X0057764Y0140000D03*
D19*
X0122275Y0070000D03*
X0122275Y0060000D03*
X0122275Y0050000D03*
X0122275Y0040000D03*
X0157275Y0021000D03*
X0167275Y0021000D03*
X0177275Y0021000D03*
X0232275Y0045000D03*
X0232275Y0055000D03*
X0232275Y0065000D03*
X0312275Y0060000D03*
X0312275Y0050000D03*
X0312275Y0040000D03*
X0312275Y0070000D03*
X0087275Y0260000D03*
X0087275Y0270000D03*
X0087275Y0280000D03*
X0087275Y0290000D03*
D20*
X0052016Y0172119D03*
X0048275Y0172119D03*
X0044535Y0172119D03*
X0044535Y0161881D03*
X0052016Y0161881D03*
D21*
X0070275Y0188988D03*
X0070275Y0200012D03*
D22*
X0087035Y0195063D03*
X0094516Y0195063D03*
X0090775Y0202937D03*
D23*
X0094256Y0189500D03*
X0079295Y0189500D03*
D24*
X0022709Y0149618D03*
X0022709Y0147059D03*
X0022709Y0144500D03*
X0022709Y0141941D03*
X0022709Y0139382D03*
D25*
X0012275Y0128752D03*
X0012275Y0160248D03*
D26*
X0012275Y0149500D03*
X0012275Y0139500D03*
D27*
X0035842Y0184063D03*
X0035842Y0191937D03*
D28*
X0015370Y0201386D03*
X0015370Y0174614D03*
D29*
X0282275Y0031000D03*
X0282275Y0025000D03*
X0282275Y0019000D03*
D30*
X0187275Y0028000D02*
X0174275Y0028000D01*
X0167275Y0021000D01*
X0166375Y0015800D02*
X0151175Y0015800D01*
X0136175Y0030800D01*
X0136175Y0038600D01*
X0137975Y0040400D01*
X0132275Y0045000D02*
X0127275Y0050000D01*
X0122275Y0050000D01*
X0122275Y0040000D02*
X0127275Y0040000D01*
X0129275Y0038000D01*
X0129275Y0028000D01*
X0135275Y0022000D02*
X0140275Y0022000D01*
X0152275Y0010000D01*
X0142275Y0010000D02*
X0132275Y0020000D01*
X0132275Y0045000D01*
X0166375Y0015800D02*
X0172175Y0010000D01*
X0172275Y0010000D01*
X0097275Y0024234D02*
X0096879Y0023837D01*
X0096743Y0024071D01*
X0096464Y0024350D01*
X0096122Y0024547D01*
X0095741Y0024650D01*
X0093287Y0024650D01*
X0093287Y0020500D01*
X0092287Y0020500D01*
X0092287Y0019500D01*
X0088531Y0019500D01*
X0088531Y0017500D01*
X0087275Y0017500D01*
X0087275Y0032500D01*
X0072275Y0047500D01*
X0072275Y0054000D01*
X0074775Y0056500D01*
X0079775Y0056500D01*
X0079775Y0052557D01*
X0079433Y0052215D01*
X0079433Y0048675D01*
X0079775Y0048333D01*
X0079775Y0047500D01*
X0082275Y0045000D01*
X0094775Y0045000D01*
X0096546Y0043229D01*
X0095746Y0041299D01*
X0095746Y0038701D01*
X0096740Y0036302D01*
X0097275Y0035766D01*
X0097275Y0034234D01*
X0096740Y0033698D01*
X0095746Y0031299D01*
X0095746Y0028701D01*
X0096740Y0026302D01*
X0097275Y0025766D01*
X0097275Y0024234D01*
X0097014Y0023972D02*
X0096801Y0023972D01*
X0097275Y0024970D02*
X0087275Y0024970D01*
X0087275Y0023972D02*
X0088774Y0023972D01*
X0088831Y0024071D02*
X0088634Y0023729D01*
X0088531Y0023347D01*
X0088531Y0020500D01*
X0092287Y0020500D01*
X0092287Y0024650D01*
X0089834Y0024650D01*
X0089452Y0024547D01*
X0089110Y0024350D01*
X0088831Y0024071D01*
X0088531Y0022973D02*
X0087275Y0022973D01*
X0087275Y0021975D02*
X0088531Y0021975D01*
X0088531Y0020976D02*
X0087275Y0020976D01*
X0087275Y0019978D02*
X0092287Y0019978D01*
X0092287Y0020976D02*
X0093287Y0020976D01*
X0093287Y0021975D02*
X0092287Y0021975D01*
X0092287Y0022973D02*
X0093287Y0022973D01*
X0093287Y0023972D02*
X0092287Y0023972D01*
X0096465Y0026967D02*
X0087275Y0026967D01*
X0087275Y0025969D02*
X0097073Y0025969D01*
X0096051Y0027966D02*
X0087275Y0027966D01*
X0087275Y0028964D02*
X0095746Y0028964D01*
X0095746Y0029963D02*
X0087275Y0029963D01*
X0087275Y0030961D02*
X0095746Y0030961D01*
X0096020Y0031960D02*
X0087275Y0031960D01*
X0086817Y0032958D02*
X0096434Y0032958D01*
X0096999Y0033957D02*
X0085819Y0033957D01*
X0084820Y0034955D02*
X0097275Y0034955D01*
X0097088Y0035954D02*
X0083822Y0035954D01*
X0082823Y0036952D02*
X0096471Y0036952D01*
X0096057Y0037951D02*
X0081825Y0037951D01*
X0080826Y0038949D02*
X0095746Y0038949D01*
X0095746Y0039948D02*
X0079828Y0039948D01*
X0078829Y0040946D02*
X0095746Y0040946D01*
X0096014Y0041945D02*
X0077831Y0041945D01*
X0076832Y0042943D02*
X0096428Y0042943D01*
X0095834Y0043942D02*
X0075834Y0043942D01*
X0074835Y0044940D02*
X0094835Y0044940D01*
X0095746Y0050000D02*
X0089775Y0050000D01*
X0089775Y0072500D01*
X0091486Y0075350D01*
X0092287Y0075350D01*
X0092287Y0076686D01*
X0093287Y0078353D01*
X0093287Y0075350D01*
X0095741Y0075350D01*
X0096122Y0075453D01*
X0096464Y0075650D01*
X0096743Y0075929D01*
X0096941Y0076271D01*
X0097043Y0076653D01*
X0097043Y0076847D01*
X0097275Y0076615D01*
X0097275Y0074234D01*
X0096740Y0073698D01*
X0095746Y0071299D01*
X0095746Y0068701D01*
X0096740Y0066302D01*
X0097275Y0065766D01*
X0097275Y0064234D01*
X0096740Y0063698D01*
X0095746Y0061299D01*
X0095746Y0058701D01*
X0096740Y0056302D01*
X0097275Y0055766D01*
X0097275Y0054234D01*
X0096740Y0053698D01*
X0095746Y0051299D01*
X0095746Y0050000D01*
X0095746Y0050932D02*
X0089775Y0050932D01*
X0089775Y0051930D02*
X0096008Y0051930D01*
X0096421Y0052929D02*
X0089775Y0052929D01*
X0089775Y0053927D02*
X0096969Y0053927D01*
X0097275Y0054926D02*
X0089775Y0054926D01*
X0089775Y0055924D02*
X0097118Y0055924D01*
X0096483Y0056923D02*
X0089775Y0056923D01*
X0089775Y0057921D02*
X0096069Y0057921D01*
X0095746Y0058920D02*
X0089775Y0058920D01*
X0089775Y0059918D02*
X0095746Y0059918D01*
X0095746Y0060917D02*
X0089775Y0060917D01*
X0089775Y0061915D02*
X0096002Y0061915D01*
X0096415Y0062914D02*
X0089775Y0062914D01*
X0089775Y0063912D02*
X0096954Y0063912D01*
X0097275Y0064911D02*
X0089775Y0064911D01*
X0089775Y0065909D02*
X0097133Y0065909D01*
X0096489Y0066908D02*
X0089775Y0066908D01*
X0089775Y0067906D02*
X0096076Y0067906D01*
X0095746Y0068905D02*
X0089775Y0068905D01*
X0089775Y0069903D02*
X0095746Y0069903D01*
X0095746Y0070902D02*
X0089775Y0070902D01*
X0089775Y0071900D02*
X0095996Y0071900D01*
X0096409Y0072899D02*
X0090015Y0072899D01*
X0090614Y0073897D02*
X0096939Y0073897D01*
X0097275Y0074896D02*
X0091213Y0074896D01*
X0092287Y0075894D02*
X0093287Y0075894D01*
X0093287Y0076893D02*
X0092411Y0076893D01*
X0093010Y0077891D02*
X0093287Y0077891D01*
X0096708Y0075894D02*
X0097275Y0075894D01*
X0087931Y0080656D02*
X0086020Y0078744D01*
X0086020Y0079500D01*
X0082264Y0079500D01*
X0082264Y0080500D01*
X0086020Y0080500D01*
X0086020Y0083347D01*
X0085917Y0083729D01*
X0085720Y0084071D01*
X0085441Y0084350D01*
X0085099Y0084547D01*
X0084717Y0084650D01*
X0082264Y0084650D01*
X0082264Y0080500D01*
X0081264Y0080500D01*
X0081264Y0084650D01*
X0078810Y0084650D01*
X0078429Y0084547D01*
X0078087Y0084350D01*
X0077807Y0084071D01*
X0077610Y0083729D01*
X0077508Y0083347D01*
X0077508Y0080500D01*
X0081264Y0080500D01*
X0081264Y0079500D01*
X0082264Y0079500D01*
X0082264Y0075350D01*
X0084717Y0075350D01*
X0084775Y0075366D01*
X0084775Y0073855D01*
X0083627Y0073855D01*
X0082903Y0073555D01*
X0080663Y0073555D01*
X0079433Y0072325D01*
X0079433Y0068785D01*
X0080164Y0068055D01*
X0079433Y0067325D01*
X0079433Y0063785D01*
X0080588Y0062631D01*
X0080333Y0062376D01*
X0080136Y0062034D01*
X0080033Y0061653D01*
X0080033Y0060555D01*
X0080033Y0060000D01*
X0069775Y0060000D01*
X0067275Y0057500D01*
X0067275Y0042167D01*
X0059478Y0034369D01*
X0059076Y0033399D01*
X0058453Y0033399D01*
X0057275Y0032222D01*
X0056098Y0033399D01*
X0048453Y0033399D01*
X0047223Y0032169D01*
X0047223Y0025311D01*
X0047534Y0025000D01*
X0047223Y0024689D01*
X0047223Y0017831D01*
X0048453Y0016601D01*
X0049675Y0016601D01*
X0049675Y0015990D01*
X0048577Y0015535D01*
X0047275Y0014234D01*
X0045974Y0015535D01*
X0043574Y0016529D01*
X0040977Y0016529D01*
X0038577Y0015535D01*
X0037275Y0014234D01*
X0035974Y0015535D01*
X0033574Y0016529D01*
X0030977Y0016529D01*
X0028577Y0015535D01*
X0027275Y0014234D01*
X0025974Y0015535D01*
X0023574Y0016529D01*
X0020977Y0016529D01*
X0018577Y0015535D01*
X0017275Y0014234D01*
X0015974Y0015535D01*
X0013574Y0016529D01*
X0010977Y0016529D01*
X0008577Y0015535D01*
X0008375Y0015334D01*
X0008375Y0073057D01*
X0012358Y0073057D01*
X0012958Y0073657D01*
X0014449Y0073657D01*
X0014449Y0077527D01*
X0015220Y0077527D01*
X0015220Y0073657D01*
X0016804Y0073657D01*
X0017185Y0073760D01*
X0017527Y0073957D01*
X0017806Y0074236D01*
X0018004Y0074578D01*
X0018106Y0074960D01*
X0018106Y0077528D01*
X0015220Y0077528D01*
X0015220Y0078299D01*
X0014449Y0078299D01*
X0014449Y0082169D01*
X0012958Y0082169D01*
X0012358Y0082769D01*
X0008375Y0082769D01*
X0008375Y0087231D01*
X0017476Y0087231D01*
X0018706Y0088461D01*
X0018706Y0091268D01*
X0020134Y0090080D01*
X0019723Y0089669D01*
X0019723Y0082811D01*
X0020034Y0082500D01*
X0019723Y0082189D01*
X0019723Y0075331D01*
X0020953Y0074101D01*
X0028598Y0074101D01*
X0029775Y0075278D01*
X0030953Y0074101D01*
X0038598Y0074101D01*
X0039828Y0075331D01*
X0039828Y0076376D01*
X0053352Y0089900D01*
X0075293Y0089900D01*
X0076248Y0090296D01*
X0079497Y0093545D01*
X0079571Y0093471D01*
X0084980Y0093471D01*
X0087700Y0096191D01*
X0089820Y0094071D01*
X0091775Y0094071D01*
X0091775Y0099500D01*
X0092775Y0099500D01*
X0092775Y0094071D01*
X0094731Y0094071D01*
X0096851Y0096191D01*
X0098042Y0095000D01*
X0095746Y0092704D01*
X0095746Y0088471D01*
X0092525Y0085250D01*
X0089162Y0085250D01*
X0087931Y0084019D01*
X0087931Y0080656D01*
X0087931Y0080887D02*
X0086020Y0080887D01*
X0086020Y0081885D02*
X0087931Y0081885D01*
X0087931Y0082884D02*
X0086020Y0082884D01*
X0085829Y0083882D02*
X0087931Y0083882D01*
X0088793Y0084881D02*
X0048333Y0084881D01*
X0047335Y0083882D02*
X0077699Y0083882D01*
X0077508Y0082884D02*
X0046336Y0082884D01*
X0045338Y0081885D02*
X0077508Y0081885D01*
X0077508Y0080887D02*
X0044339Y0080887D01*
X0043341Y0079888D02*
X0081264Y0079888D01*
X0081264Y0079500D02*
X0077508Y0079500D01*
X0077508Y0076653D01*
X0077610Y0076271D01*
X0077807Y0075929D01*
X0078087Y0075650D01*
X0078429Y0075453D01*
X0078810Y0075350D01*
X0081264Y0075350D01*
X0081264Y0079500D01*
X0081264Y0078890D02*
X0082264Y0078890D01*
X0082264Y0079888D02*
X0087164Y0079888D01*
X0086165Y0078890D02*
X0086020Y0078890D01*
X0082264Y0077891D02*
X0081264Y0077891D01*
X0081264Y0076893D02*
X0082264Y0076893D01*
X0082264Y0075894D02*
X0081264Y0075894D01*
X0080007Y0072899D02*
X0008375Y0072899D01*
X0008375Y0071900D02*
X0079433Y0071900D01*
X0079433Y0070902D02*
X0008375Y0070902D01*
X0008375Y0069903D02*
X0079433Y0069903D01*
X0079433Y0068905D02*
X0008375Y0068905D01*
X0008375Y0067906D02*
X0056450Y0067906D01*
X0056508Y0068008D02*
X0056311Y0067666D01*
X0056209Y0067284D01*
X0056209Y0060500D01*
X0059768Y0060500D01*
X0059768Y0068587D01*
X0057511Y0068587D01*
X0057130Y0068484D01*
X0056788Y0068287D01*
X0056508Y0068008D01*
X0056209Y0066908D02*
X0008375Y0066908D01*
X0008375Y0065909D02*
X0056209Y0065909D01*
X0056209Y0064911D02*
X0008375Y0064911D01*
X0008375Y0063912D02*
X0056209Y0063912D01*
X0056209Y0062914D02*
X0008375Y0062914D01*
X0008375Y0061915D02*
X0056209Y0061915D01*
X0056209Y0060917D02*
X0008375Y0060917D01*
X0008375Y0059918D02*
X0059768Y0059918D01*
X0059768Y0059500D02*
X0056209Y0059500D01*
X0056209Y0052716D01*
X0056311Y0052334D01*
X0056508Y0051992D01*
X0056788Y0051713D01*
X0057130Y0051516D01*
X0057511Y0051413D01*
X0059768Y0051413D01*
X0059768Y0059500D01*
X0060768Y0059500D01*
X0060768Y0060500D01*
X0064327Y0060500D01*
X0064327Y0067284D01*
X0064224Y0067666D01*
X0064027Y0068008D01*
X0063748Y0068287D01*
X0063406Y0068484D01*
X0063024Y0068587D01*
X0060768Y0068587D01*
X0060768Y0060500D01*
X0059768Y0060500D01*
X0059768Y0059500D01*
X0059768Y0058920D02*
X0060768Y0058920D01*
X0060768Y0059500D02*
X0060768Y0051413D01*
X0063024Y0051413D01*
X0063406Y0051516D01*
X0063748Y0051713D01*
X0064027Y0051992D01*
X0064224Y0052334D01*
X0064327Y0052716D01*
X0064327Y0059500D01*
X0060768Y0059500D01*
X0060768Y0059918D02*
X0069694Y0059918D01*
X0068695Y0058920D02*
X0064327Y0058920D01*
X0064327Y0057921D02*
X0067697Y0057921D01*
X0067275Y0056923D02*
X0064327Y0056923D01*
X0064327Y0055924D02*
X0067275Y0055924D01*
X0067275Y0054926D02*
X0064327Y0054926D01*
X0064327Y0053927D02*
X0067275Y0053927D01*
X0067275Y0052929D02*
X0064327Y0052929D01*
X0063965Y0051930D02*
X0067275Y0051930D01*
X0067275Y0050932D02*
X0008375Y0050932D01*
X0008375Y0051930D02*
X0056571Y0051930D01*
X0056209Y0052929D02*
X0008375Y0052929D01*
X0008375Y0053927D02*
X0056209Y0053927D01*
X0056209Y0054926D02*
X0008375Y0054926D01*
X0008375Y0055924D02*
X0056209Y0055924D01*
X0056209Y0056923D02*
X0008375Y0056923D01*
X0008375Y0057921D02*
X0056209Y0057921D01*
X0056209Y0058920D02*
X0008375Y0058920D01*
X0008375Y0049933D02*
X0067275Y0049933D01*
X0067275Y0048934D02*
X0008375Y0048934D01*
X0008375Y0047936D02*
X0067275Y0047936D01*
X0067275Y0046937D02*
X0008375Y0046937D01*
X0008375Y0045939D02*
X0067275Y0045939D01*
X0067275Y0044940D02*
X0008375Y0044940D01*
X0008375Y0043942D02*
X0067275Y0043942D01*
X0067275Y0042943D02*
X0008375Y0042943D01*
X0008375Y0041945D02*
X0067054Y0041945D01*
X0066055Y0040946D02*
X0008375Y0040946D01*
X0008375Y0039948D02*
X0065056Y0039948D01*
X0064058Y0038949D02*
X0008375Y0038949D01*
X0008375Y0037951D02*
X0063059Y0037951D01*
X0062061Y0036952D02*
X0008375Y0036952D01*
X0008375Y0035954D02*
X0061062Y0035954D01*
X0060064Y0034955D02*
X0008375Y0034955D01*
X0008375Y0033957D02*
X0059307Y0033957D01*
X0058012Y0032958D02*
X0056539Y0032958D01*
X0048012Y0032958D02*
X0008375Y0032958D01*
X0008375Y0031960D02*
X0047223Y0031960D01*
X0047223Y0030961D02*
X0008375Y0030961D01*
X0008375Y0029963D02*
X0047223Y0029963D01*
X0047223Y0028964D02*
X0008375Y0028964D01*
X0008375Y0027966D02*
X0047223Y0027966D01*
X0047223Y0026967D02*
X0008375Y0026967D01*
X0008375Y0025969D02*
X0047223Y0025969D01*
X0047504Y0024970D02*
X0008375Y0024970D01*
X0008375Y0023972D02*
X0047223Y0023972D01*
X0047223Y0022973D02*
X0008375Y0022973D01*
X0008375Y0021975D02*
X0047223Y0021975D01*
X0047223Y0020976D02*
X0008375Y0020976D01*
X0008375Y0019978D02*
X0047223Y0019978D01*
X0047223Y0018979D02*
X0008375Y0018979D01*
X0008375Y0017981D02*
X0047223Y0017981D01*
X0048072Y0016982D02*
X0008375Y0016982D01*
X0008375Y0015984D02*
X0009660Y0015984D01*
X0014891Y0015984D02*
X0019660Y0015984D01*
X0018027Y0014985D02*
X0016524Y0014985D01*
X0024891Y0015984D02*
X0029660Y0015984D01*
X0028027Y0014985D02*
X0026524Y0014985D01*
X0034891Y0015984D02*
X0039660Y0015984D01*
X0038027Y0014985D02*
X0036524Y0014985D01*
X0044891Y0015984D02*
X0049660Y0015984D01*
X0048027Y0014985D02*
X0046524Y0014985D01*
X0052275Y0010000D02*
X0052275Y0021260D01*
X0062275Y0021260D02*
X0062275Y0010000D01*
X0072275Y0010000D02*
X0072275Y0021260D01*
X0087275Y0018979D02*
X0088531Y0018979D01*
X0088531Y0017981D02*
X0087275Y0017981D01*
X0081337Y0045939D02*
X0073837Y0045939D01*
X0072838Y0046937D02*
X0080338Y0046937D01*
X0079775Y0047936D02*
X0072275Y0047936D01*
X0072275Y0048934D02*
X0079433Y0048934D01*
X0079433Y0049933D02*
X0072275Y0049933D01*
X0072275Y0050932D02*
X0079433Y0050932D01*
X0079433Y0051930D02*
X0072275Y0051930D01*
X0072275Y0052929D02*
X0079775Y0052929D01*
X0079775Y0053927D02*
X0072275Y0053927D01*
X0073201Y0054926D02*
X0079775Y0054926D01*
X0079775Y0055924D02*
X0074200Y0055924D01*
X0080033Y0060555D02*
X0084283Y0060555D01*
X0084283Y0060555D01*
X0080033Y0060555D01*
X0080033Y0060917D02*
X0064327Y0060917D01*
X0064327Y0061915D02*
X0080104Y0061915D01*
X0080305Y0062914D02*
X0064327Y0062914D01*
X0064327Y0063912D02*
X0079433Y0063912D01*
X0079433Y0064911D02*
X0064327Y0064911D01*
X0064327Y0065909D02*
X0079433Y0065909D01*
X0079433Y0066908D02*
X0064327Y0066908D01*
X0064086Y0067906D02*
X0080015Y0067906D01*
X0084775Y0073897D02*
X0017423Y0073897D01*
X0018089Y0074896D02*
X0020158Y0074896D01*
X0019723Y0075894D02*
X0018106Y0075894D01*
X0018106Y0076893D02*
X0019723Y0076893D01*
X0019723Y0077891D02*
X0015220Y0077891D01*
X0015220Y0078299D02*
X0018106Y0078299D01*
X0018106Y0080867D01*
X0018004Y0081248D01*
X0017806Y0081590D01*
X0017527Y0081870D01*
X0017185Y0082067D01*
X0016804Y0082169D01*
X0015220Y0082169D01*
X0015220Y0078299D01*
X0015220Y0078890D02*
X0014449Y0078890D01*
X0014449Y0079888D02*
X0015220Y0079888D01*
X0015220Y0080887D02*
X0014449Y0080887D01*
X0014449Y0081885D02*
X0015220Y0081885D01*
X0017500Y0081885D02*
X0019723Y0081885D01*
X0019723Y0080887D02*
X0018101Y0080887D01*
X0018106Y0079888D02*
X0019723Y0079888D01*
X0019723Y0078890D02*
X0018106Y0078890D01*
X0015220Y0076893D02*
X0014449Y0076893D01*
X0014449Y0075894D02*
X0015220Y0075894D01*
X0015220Y0074896D02*
X0014449Y0074896D01*
X0014449Y0073897D02*
X0015220Y0073897D01*
X0019723Y0082884D02*
X0008375Y0082884D01*
X0008375Y0083882D02*
X0019723Y0083882D01*
X0019723Y0084881D02*
X0008375Y0084881D01*
X0008375Y0085879D02*
X0019723Y0085879D01*
X0019723Y0086878D02*
X0008375Y0086878D01*
X0009716Y0092087D02*
X0009716Y0097441D01*
X0012275Y0100000D01*
X0024177Y0090098D01*
X0024775Y0086240D01*
X0019927Y0089873D02*
X0018706Y0089873D01*
X0018706Y0088875D02*
X0019723Y0088875D01*
X0019723Y0087876D02*
X0018122Y0087876D01*
X0018706Y0090872D02*
X0019182Y0090872D01*
X0032275Y0100000D02*
X0034775Y0097500D01*
X0034775Y0086240D01*
X0034775Y0078760D02*
X0036677Y0076902D01*
X0052275Y0092500D01*
X0074775Y0092500D01*
X0082275Y0100000D01*
X0087374Y0095865D02*
X0088026Y0095865D01*
X0089024Y0094866D02*
X0086375Y0094866D01*
X0085377Y0093868D02*
X0096909Y0093868D01*
X0097908Y0094866D02*
X0095527Y0094866D01*
X0096525Y0095865D02*
X0097177Y0095865D01*
X0095911Y0092869D02*
X0078821Y0092869D01*
X0077823Y0091870D02*
X0095746Y0091870D01*
X0095746Y0090872D02*
X0076824Y0090872D01*
X0081264Y0083882D02*
X0082264Y0083882D01*
X0082264Y0082884D02*
X0081264Y0082884D01*
X0081264Y0081885D02*
X0082264Y0081885D01*
X0082264Y0080887D02*
X0081264Y0080887D01*
X0077508Y0078890D02*
X0042342Y0078890D01*
X0041344Y0077891D02*
X0077508Y0077891D01*
X0077508Y0076893D02*
X0040345Y0076893D01*
X0039828Y0075894D02*
X0077843Y0075894D01*
X0084775Y0074896D02*
X0039393Y0074896D01*
X0030158Y0074896D02*
X0029393Y0074896D01*
X0049332Y0085879D02*
X0093155Y0085879D01*
X0094153Y0086878D02*
X0050330Y0086878D01*
X0051329Y0087876D02*
X0095152Y0087876D01*
X0095746Y0088875D02*
X0052327Y0088875D01*
X0053326Y0089873D02*
X0095746Y0089873D01*
X0092775Y0094866D02*
X0091775Y0094866D01*
X0091775Y0095865D02*
X0092775Y0095865D01*
X0092775Y0096863D02*
X0091775Y0096863D01*
X0091775Y0097862D02*
X0092775Y0097862D01*
X0092775Y0098860D02*
X0091775Y0098860D01*
X0077700Y0123809D02*
X0075974Y0125535D01*
X0073574Y0126529D01*
X0070977Y0126529D01*
X0068577Y0125535D01*
X0067275Y0124234D01*
X0065974Y0125535D01*
X0063574Y0126529D01*
X0060977Y0126529D01*
X0058577Y0125535D01*
X0057275Y0124234D01*
X0055974Y0125535D01*
X0053574Y0126529D01*
X0050977Y0126529D01*
X0050939Y0126513D01*
X0049060Y0128393D01*
X0049060Y0129253D01*
X0048484Y0130644D01*
X0048175Y0130952D01*
X0048175Y0140025D01*
X0048819Y0140292D01*
X0049884Y0141356D01*
X0050460Y0142747D01*
X0050460Y0143203D01*
X0052908Y0140755D01*
X0052908Y0135981D01*
X0054138Y0134750D01*
X0054331Y0134750D01*
X0054375Y0134594D01*
X0054375Y0134423D01*
X0054533Y0134044D01*
X0054646Y0133649D01*
X0054752Y0133515D01*
X0054817Y0133357D01*
X0055107Y0133067D01*
X0055363Y0132745D01*
X0055512Y0132662D01*
X0055633Y0132541D01*
X0056012Y0132384D01*
X0057312Y0131662D01*
X0057433Y0131541D01*
X0057812Y0131384D01*
X0058171Y0131185D01*
X0058341Y0131165D01*
X0058499Y0131100D01*
X0058909Y0131100D01*
X0059318Y0131053D01*
X0059482Y0131100D01*
X0060824Y0131100D01*
X0061132Y0130792D01*
X0062523Y0130216D01*
X0064028Y0130216D01*
X0065419Y0130792D01*
X0066484Y0131856D01*
X0067060Y0133247D01*
X0067060Y0134753D01*
X0066812Y0135350D01*
X0068287Y0135350D01*
X0068287Y0139500D01*
X0064531Y0139500D01*
X0064531Y0137576D01*
X0064028Y0137784D01*
X0062620Y0137784D01*
X0062620Y0144019D01*
X0061438Y0145201D01*
X0061926Y0145201D01*
X0062307Y0145303D01*
X0062649Y0145500D01*
X0062929Y0145780D01*
X0063126Y0146122D01*
X0063228Y0146503D01*
X0063228Y0148760D01*
X0059276Y0148760D01*
X0059276Y0149760D01*
X0063228Y0149760D01*
X0063228Y0152016D01*
X0063126Y0152398D01*
X0063049Y0152532D01*
X0063828Y0153311D01*
X0063828Y0160169D01*
X0062598Y0161399D01*
X0057165Y0161399D01*
X0055198Y0163366D01*
X0055198Y0165114D01*
X0053968Y0166344D01*
X0050063Y0166344D01*
X0048833Y0165114D01*
X0048833Y0162821D01*
X0048716Y0162538D01*
X0048716Y0161225D01*
X0048833Y0160942D01*
X0048833Y0158649D01*
X0050063Y0157419D01*
X0051811Y0157419D01*
X0053723Y0155508D01*
X0053723Y0153311D01*
X0054502Y0152532D01*
X0054425Y0152398D01*
X0054323Y0152016D01*
X0054323Y0149760D01*
X0058275Y0149760D01*
X0058275Y0148760D01*
X0054323Y0148760D01*
X0054323Y0147542D01*
X0049406Y0152458D01*
X0048341Y0152900D01*
X0048175Y0152900D01*
X0048175Y0168256D01*
X0048234Y0168256D01*
X0048234Y0172077D01*
X0048317Y0172077D01*
X0048317Y0168256D01*
X0049463Y0168256D01*
X0050063Y0167656D01*
X0053968Y0167656D01*
X0055198Y0168886D01*
X0055198Y0174725D01*
X0055532Y0174392D01*
X0056923Y0173816D01*
X0058428Y0173816D01*
X0059819Y0174392D01*
X0060127Y0174700D01*
X0070652Y0174700D01*
X0071718Y0175141D01*
X0073492Y0176916D01*
X0073828Y0176916D01*
X0075219Y0177492D01*
X0076284Y0178556D01*
X0076395Y0178826D01*
X0076395Y0173221D01*
X0070633Y0167458D01*
X0069817Y0166643D01*
X0069375Y0165577D01*
X0069375Y0156201D01*
X0066959Y0153784D01*
X0066523Y0153784D01*
X0065132Y0153208D01*
X0064067Y0152144D01*
X0063491Y0150753D01*
X0063491Y0149247D01*
X0064067Y0147856D01*
X0065132Y0146792D01*
X0066523Y0146216D01*
X0068028Y0146216D01*
X0069419Y0146792D01*
X0070484Y0147856D01*
X0071060Y0149247D01*
X0071060Y0149683D01*
X0074734Y0153357D01*
X0075175Y0154423D01*
X0075175Y0163799D01*
X0078191Y0166815D01*
X0078191Y0165647D01*
X0078675Y0164478D01*
X0078675Y0129644D01*
X0079178Y0128431D01*
X0080106Y0127502D01*
X0081679Y0125929D01*
X0079820Y0125929D01*
X0077700Y0123809D01*
X0077686Y0123823D02*
X0077713Y0123823D01*
X0078712Y0124821D02*
X0076688Y0124821D01*
X0075287Y0125820D02*
X0079710Y0125820D01*
X0080790Y0126818D02*
X0050634Y0126818D01*
X0049636Y0127817D02*
X0079792Y0127817D01*
X0079019Y0128815D02*
X0049060Y0128815D01*
X0048827Y0129814D02*
X0078675Y0129814D01*
X0078675Y0130812D02*
X0065440Y0130812D01*
X0066438Y0131811D02*
X0078675Y0131811D01*
X0078675Y0132809D02*
X0066878Y0132809D01*
X0067060Y0133808D02*
X0078675Y0133808D01*
X0078675Y0134806D02*
X0067037Y0134806D01*
X0068287Y0135805D02*
X0069287Y0135805D01*
X0069287Y0135350D02*
X0071741Y0135350D01*
X0072122Y0135453D01*
X0072464Y0135650D01*
X0072743Y0135929D01*
X0072941Y0136271D01*
X0073043Y0136653D01*
X0073043Y0139500D01*
X0069287Y0139500D01*
X0069287Y0135350D01*
X0069287Y0136803D02*
X0068287Y0136803D01*
X0068287Y0137802D02*
X0069287Y0137802D01*
X0069287Y0138801D02*
X0068287Y0138801D01*
X0068287Y0139500D02*
X0069287Y0139500D01*
X0069287Y0140500D01*
X0068287Y0140500D01*
X0068287Y0139500D01*
X0068287Y0139799D02*
X0062620Y0139799D01*
X0062620Y0138801D02*
X0064531Y0138801D01*
X0064531Y0137802D02*
X0062620Y0137802D01*
X0062620Y0140798D02*
X0064531Y0140798D01*
X0064531Y0140500D02*
X0064531Y0143347D01*
X0064634Y0143729D01*
X0064831Y0144071D01*
X0065110Y0144350D01*
X0065452Y0144547D01*
X0065834Y0144650D01*
X0068287Y0144650D01*
X0068287Y0140500D01*
X0064531Y0140500D01*
X0064531Y0141796D02*
X0062620Y0141796D01*
X0062620Y0142795D02*
X0064531Y0142795D01*
X0064671Y0143793D02*
X0062620Y0143793D01*
X0061847Y0144792D02*
X0078675Y0144792D01*
X0078675Y0145790D02*
X0062934Y0145790D01*
X0063228Y0146789D02*
X0065140Y0146789D01*
X0064137Y0147787D02*
X0063228Y0147787D01*
X0063682Y0148786D02*
X0059276Y0148786D01*
X0058275Y0148786D02*
X0053079Y0148786D01*
X0052081Y0149784D02*
X0054323Y0149784D01*
X0054323Y0150783D02*
X0051082Y0150783D01*
X0050084Y0151781D02*
X0054323Y0151781D01*
X0054254Y0152780D02*
X0048631Y0152780D01*
X0048175Y0153778D02*
X0053723Y0153778D01*
X0053723Y0154777D02*
X0048175Y0154777D01*
X0048175Y0155775D02*
X0053455Y0155775D01*
X0052457Y0156774D02*
X0048175Y0156774D01*
X0048175Y0157772D02*
X0049710Y0157772D01*
X0048833Y0158771D02*
X0048175Y0158771D01*
X0048175Y0159769D02*
X0048833Y0159769D01*
X0048833Y0160768D02*
X0048175Y0160768D01*
X0048175Y0161766D02*
X0048716Y0161766D01*
X0048810Y0162765D02*
X0048175Y0162765D01*
X0048175Y0163763D02*
X0048833Y0163763D01*
X0048833Y0164762D02*
X0048175Y0164762D01*
X0048175Y0165760D02*
X0049480Y0165760D01*
X0048175Y0166759D02*
X0069933Y0166759D01*
X0069451Y0165760D02*
X0054552Y0165760D01*
X0055198Y0164762D02*
X0069375Y0164762D01*
X0069375Y0163763D02*
X0055198Y0163763D01*
X0055799Y0162765D02*
X0069375Y0162765D01*
X0069375Y0161766D02*
X0056798Y0161766D01*
X0063230Y0160768D02*
X0069375Y0160768D01*
X0069375Y0159769D02*
X0063828Y0159769D01*
X0063828Y0158771D02*
X0069375Y0158771D01*
X0069375Y0157772D02*
X0063828Y0157772D01*
X0063828Y0156774D02*
X0069375Y0156774D01*
X0068949Y0155775D02*
X0063828Y0155775D01*
X0063828Y0154777D02*
X0067951Y0154777D01*
X0066508Y0153778D02*
X0063828Y0153778D01*
X0063297Y0152780D02*
X0064703Y0152780D01*
X0063917Y0151781D02*
X0063228Y0151781D01*
X0063228Y0150783D02*
X0063504Y0150783D01*
X0063491Y0149784D02*
X0063228Y0149784D01*
X0069411Y0146789D02*
X0078675Y0146789D01*
X0078675Y0147787D02*
X0070414Y0147787D01*
X0070869Y0148786D02*
X0078675Y0148786D01*
X0078675Y0149784D02*
X0071161Y0149784D01*
X0072159Y0150783D02*
X0078675Y0150783D01*
X0078675Y0151781D02*
X0073158Y0151781D01*
X0074156Y0152780D02*
X0078675Y0152780D01*
X0078675Y0153778D02*
X0074908Y0153778D01*
X0075175Y0154777D02*
X0078675Y0154777D01*
X0078675Y0155775D02*
X0075175Y0155775D01*
X0075175Y0156774D02*
X0078675Y0156774D01*
X0078675Y0157772D02*
X0075175Y0157772D01*
X0075175Y0158771D02*
X0078675Y0158771D01*
X0078675Y0159769D02*
X0075175Y0159769D01*
X0075175Y0160768D02*
X0078675Y0160768D01*
X0078675Y0161766D02*
X0075175Y0161766D01*
X0075175Y0162765D02*
X0078675Y0162765D01*
X0078675Y0163763D02*
X0075175Y0163763D01*
X0076138Y0164762D02*
X0078558Y0164762D01*
X0078191Y0165760D02*
X0077137Y0165760D01*
X0078136Y0166759D02*
X0078191Y0166759D01*
X0072929Y0169754D02*
X0055198Y0169754D01*
X0055198Y0170753D02*
X0073927Y0170753D01*
X0074926Y0171751D02*
X0055198Y0171751D01*
X0055198Y0172750D02*
X0075924Y0172750D01*
X0076395Y0173748D02*
X0055198Y0173748D01*
X0052016Y0174240D02*
X0052016Y0176040D01*
X0058275Y0182300D01*
X0060475Y0183200D01*
X0063965Y0181737D02*
X0069409Y0181737D01*
X0069291Y0181453D02*
X0069291Y0180917D01*
X0068874Y0180500D01*
X0063127Y0180500D01*
X0063684Y0181056D01*
X0064260Y0182447D01*
X0064260Y0183953D01*
X0063684Y0185344D01*
X0062619Y0186408D01*
X0061228Y0186984D01*
X0059844Y0186984D01*
X0067735Y0195156D01*
X0074295Y0195156D01*
X0075525Y0196386D01*
X0075525Y0199637D01*
X0086942Y0199637D01*
X0086240Y0198935D01*
X0084591Y0198935D01*
X0083890Y0198234D01*
X0082989Y0197861D01*
X0079484Y0194356D01*
X0075669Y0194356D01*
X0074439Y0193126D01*
X0074439Y0192851D01*
X0074346Y0192944D01*
X0074004Y0193142D01*
X0073623Y0193244D01*
X0070775Y0193244D01*
X0070775Y0189488D01*
X0069775Y0189488D01*
X0069775Y0188488D01*
X0065626Y0188488D01*
X0065626Y0186035D01*
X0065728Y0185653D01*
X0065926Y0185311D01*
X0066205Y0185032D01*
X0066547Y0184835D01*
X0066928Y0184732D01*
X0069775Y0184732D01*
X0069775Y0188488D01*
X0070775Y0188488D01*
X0070775Y0184732D01*
X0073623Y0184732D01*
X0074004Y0184835D01*
X0074346Y0185032D01*
X0074625Y0185311D01*
X0074763Y0185550D01*
X0075669Y0184644D01*
X0076395Y0184644D01*
X0076395Y0182574D01*
X0076284Y0182844D01*
X0075219Y0183908D01*
X0073828Y0184484D01*
X0072323Y0184484D01*
X0070932Y0183908D01*
X0069867Y0182844D01*
X0069291Y0181453D01*
X0069112Y0180738D02*
X0063365Y0180738D01*
X0064260Y0182735D02*
X0069822Y0182735D01*
X0070757Y0183734D02*
X0064260Y0183734D01*
X0063937Y0184732D02*
X0075581Y0184732D01*
X0075394Y0183734D02*
X0076395Y0183734D01*
X0076395Y0182735D02*
X0076329Y0182735D01*
X0076360Y0178741D02*
X0076395Y0178741D01*
X0076395Y0177742D02*
X0075470Y0177742D01*
X0076395Y0176744D02*
X0073321Y0176744D01*
X0072322Y0175745D02*
X0076395Y0175745D01*
X0076395Y0174747D02*
X0070766Y0174747D01*
X0071930Y0168756D02*
X0055068Y0168756D01*
X0054069Y0167757D02*
X0070932Y0167757D01*
X0070775Y0185731D02*
X0069775Y0185731D01*
X0069775Y0186729D02*
X0070775Y0186729D01*
X0070775Y0187728D02*
X0069775Y0187728D01*
X0069775Y0188726D02*
X0061526Y0188726D01*
X0060562Y0187728D02*
X0065626Y0187728D01*
X0065626Y0186729D02*
X0061844Y0186729D01*
X0063297Y0185731D02*
X0065707Y0185731D01*
X0065626Y0189488D02*
X0069775Y0189488D01*
X0069775Y0193244D01*
X0066928Y0193244D01*
X0066547Y0193142D01*
X0066205Y0192944D01*
X0065926Y0192665D01*
X0065728Y0192323D01*
X0065626Y0191942D01*
X0065626Y0189488D01*
X0065626Y0189725D02*
X0062491Y0189725D01*
X0063455Y0190723D02*
X0065626Y0190723D01*
X0065626Y0191722D02*
X0064419Y0191722D01*
X0065383Y0192720D02*
X0065981Y0192720D01*
X0066347Y0193719D02*
X0075032Y0193719D01*
X0074855Y0195716D02*
X0080844Y0195716D01*
X0081842Y0196714D02*
X0075525Y0196714D01*
X0075525Y0197713D02*
X0082841Y0197713D01*
X0084367Y0198711D02*
X0075525Y0198711D01*
X0079845Y0194717D02*
X0067312Y0194717D01*
X0069775Y0192720D02*
X0070775Y0192720D01*
X0070775Y0191722D02*
X0069775Y0191722D01*
X0069775Y0190723D02*
X0070775Y0190723D01*
X0070775Y0189725D02*
X0069775Y0189725D01*
X0063082Y0196714D02*
X0023511Y0196714D01*
X0022933Y0196136D02*
X0024163Y0197366D01*
X0024163Y0203715D01*
X0025974Y0204465D01*
X0027275Y0205766D01*
X0028577Y0204465D01*
X0030977Y0203471D01*
X0033574Y0203471D01*
X0035974Y0204465D01*
X0037275Y0205766D01*
X0038577Y0204465D01*
X0040977Y0203471D01*
X0043574Y0203471D01*
X0045974Y0204465D01*
X0047275Y0205766D01*
X0048577Y0204465D01*
X0050977Y0203471D01*
X0053574Y0203471D01*
X0055974Y0204465D01*
X0057275Y0205766D01*
X0058577Y0204465D01*
X0060977Y0203471D01*
X0063574Y0203471D01*
X0065974Y0204465D01*
X0067275Y0205766D01*
X0068577Y0204465D01*
X0069053Y0204268D01*
X0066928Y0204268D01*
X0066547Y0204165D01*
X0066205Y0203968D01*
X0065926Y0203689D01*
X0065728Y0203347D01*
X0065626Y0202965D01*
X0065626Y0200512D01*
X0066920Y0200512D01*
X0065909Y0199512D01*
X0065626Y0199512D01*
X0065626Y0199231D01*
X0044975Y0178800D01*
X0044975Y0175981D01*
X0044577Y0175981D01*
X0044577Y0172160D01*
X0044494Y0172160D01*
X0044494Y0175981D01*
X0043255Y0175981D01*
X0042874Y0175878D01*
X0042532Y0175681D01*
X0042252Y0175402D01*
X0042055Y0175060D01*
X0041953Y0174678D01*
X0041953Y0172160D01*
X0044494Y0172160D01*
X0044494Y0172077D01*
X0041953Y0172077D01*
X0041953Y0171990D01*
X0040145Y0173798D01*
X0039142Y0174800D01*
X0039142Y0177078D01*
X0039627Y0178247D01*
X0039627Y0179753D01*
X0039527Y0179994D01*
X0045767Y0179994D01*
X0046998Y0181225D01*
X0046998Y0186901D01*
X0045767Y0188131D01*
X0025917Y0188131D01*
X0024687Y0186901D01*
X0024687Y0183038D01*
X0024132Y0182808D01*
X0023067Y0181744D01*
X0022491Y0180353D01*
X0022491Y0179864D01*
X0008375Y0179864D01*
X0008375Y0196136D01*
X0022933Y0196136D01*
X0024163Y0197713D02*
X0064091Y0197713D01*
X0065100Y0198711D02*
X0024163Y0198711D01*
X0024163Y0199710D02*
X0066109Y0199710D01*
X0065626Y0200708D02*
X0024163Y0200708D01*
X0024163Y0201707D02*
X0065626Y0201707D01*
X0065626Y0202705D02*
X0024163Y0202705D01*
X0024163Y0203704D02*
X0030415Y0203704D01*
X0028340Y0204702D02*
X0026211Y0204702D01*
X0027210Y0205701D02*
X0027341Y0205701D01*
X0034136Y0203704D02*
X0040415Y0203704D01*
X0038340Y0204702D02*
X0036211Y0204702D01*
X0037210Y0205701D02*
X0037341Y0205701D01*
X0044136Y0203704D02*
X0050415Y0203704D01*
X0048340Y0204702D02*
X0046211Y0204702D01*
X0047210Y0205701D02*
X0047341Y0205701D01*
X0054136Y0203704D02*
X0060415Y0203704D01*
X0058340Y0204702D02*
X0056211Y0204702D01*
X0057210Y0205701D02*
X0057341Y0205701D01*
X0064136Y0203704D02*
X0065941Y0203704D01*
X0066211Y0204702D02*
X0068340Y0204702D01*
X0067341Y0205701D02*
X0067210Y0205701D01*
X0062072Y0195716D02*
X0008375Y0195716D01*
X0008375Y0194717D02*
X0025524Y0194717D01*
X0025587Y0194827D02*
X0025390Y0194484D01*
X0025287Y0194103D01*
X0025287Y0192421D01*
X0035358Y0192421D01*
X0035358Y0191453D01*
X0025287Y0191453D01*
X0025287Y0189771D01*
X0025390Y0189390D01*
X0025587Y0189047D01*
X0025866Y0188768D01*
X0026208Y0188571D01*
X0026590Y0188469D01*
X0035358Y0188469D01*
X0035358Y0191453D01*
X0036327Y0191453D01*
X0036327Y0192421D01*
X0046398Y0192421D01*
X0046398Y0194103D01*
X0046295Y0194484D01*
X0046098Y0194827D01*
X0045819Y0195106D01*
X0045477Y0195303D01*
X0045095Y0195405D01*
X0036327Y0195405D01*
X0036327Y0192421D01*
X0035358Y0192421D01*
X0035358Y0195405D01*
X0026590Y0195405D01*
X0026208Y0195303D01*
X0025866Y0195106D01*
X0025587Y0194827D01*
X0025287Y0193719D02*
X0008375Y0193719D01*
X0008375Y0192720D02*
X0025287Y0192720D01*
X0025287Y0190723D02*
X0008375Y0190723D01*
X0008375Y0189725D02*
X0025300Y0189725D01*
X0025939Y0188726D02*
X0008375Y0188726D01*
X0008375Y0187728D02*
X0025514Y0187728D01*
X0024687Y0186729D02*
X0008375Y0186729D01*
X0008375Y0185731D02*
X0024687Y0185731D01*
X0024687Y0184732D02*
X0008375Y0184732D01*
X0008375Y0183734D02*
X0024687Y0183734D01*
X0024059Y0182735D02*
X0008375Y0182735D01*
X0008375Y0181737D02*
X0023064Y0181737D01*
X0022651Y0180738D02*
X0008375Y0180738D01*
X0008375Y0191722D02*
X0035358Y0191722D01*
X0036327Y0191722D02*
X0058036Y0191722D01*
X0059045Y0192720D02*
X0046398Y0192720D01*
X0046398Y0193719D02*
X0060054Y0193719D01*
X0061063Y0194717D02*
X0046161Y0194717D01*
X0046398Y0191453D02*
X0036327Y0191453D01*
X0036327Y0188469D01*
X0045095Y0188469D01*
X0045477Y0188571D01*
X0045819Y0188768D01*
X0046098Y0189047D01*
X0046295Y0189390D01*
X0046398Y0189771D01*
X0046398Y0191453D01*
X0046398Y0190723D02*
X0057026Y0190723D01*
X0056017Y0189725D02*
X0046385Y0189725D01*
X0045746Y0188726D02*
X0055008Y0188726D01*
X0053999Y0187728D02*
X0046171Y0187728D01*
X0046998Y0186729D02*
X0052990Y0186729D01*
X0051980Y0185731D02*
X0046998Y0185731D01*
X0046998Y0184732D02*
X0050971Y0184732D01*
X0049962Y0183734D02*
X0046998Y0183734D01*
X0046998Y0182735D02*
X0048953Y0182735D01*
X0047943Y0181737D02*
X0046998Y0181737D01*
X0046934Y0180738D02*
X0046511Y0180738D01*
X0045925Y0179739D02*
X0039627Y0179739D01*
X0039627Y0178741D02*
X0044975Y0178741D01*
X0044975Y0177742D02*
X0039418Y0177742D01*
X0039142Y0176744D02*
X0044975Y0176744D01*
X0044577Y0175745D02*
X0044494Y0175745D01*
X0044494Y0174747D02*
X0044577Y0174747D01*
X0044577Y0173748D02*
X0044494Y0173748D01*
X0044494Y0172750D02*
X0044577Y0172750D01*
X0041953Y0172750D02*
X0041192Y0172750D01*
X0041953Y0173748D02*
X0040194Y0173748D01*
X0039195Y0174747D02*
X0041971Y0174747D01*
X0042643Y0175745D02*
X0039142Y0175745D01*
X0048234Y0171751D02*
X0048317Y0171751D01*
X0048317Y0170753D02*
X0048234Y0170753D01*
X0048234Y0169754D02*
X0048317Y0169754D01*
X0048317Y0168756D02*
X0048234Y0168756D01*
X0048175Y0167757D02*
X0049962Y0167757D01*
X0044275Y0161923D02*
X0044275Y0161840D01*
X0041953Y0161840D01*
X0041953Y0159322D01*
X0042055Y0158940D01*
X0042252Y0158598D01*
X0042532Y0158319D01*
X0042874Y0158122D01*
X0043255Y0158019D01*
X0044275Y0158019D01*
X0044275Y0146452D01*
X0043924Y0146100D01*
X0042640Y0146100D01*
X0042660Y0146147D01*
X0042660Y0147653D01*
X0042084Y0149044D01*
X0041019Y0150108D01*
X0039628Y0150684D01*
X0038123Y0150684D01*
X0036732Y0150108D01*
X0036424Y0149800D01*
X0026964Y0149800D01*
X0026964Y0150505D01*
X0026862Y0150886D01*
X0026665Y0151228D01*
X0026385Y0151507D01*
X0026043Y0151705D01*
X0025662Y0151807D01*
X0022709Y0151807D01*
X0022709Y0149848D01*
X0022708Y0149848D01*
X0022708Y0151807D01*
X0019755Y0151807D01*
X0019374Y0151705D01*
X0019032Y0151507D01*
X0018752Y0151228D01*
X0018555Y0150886D01*
X0018453Y0150505D01*
X0018453Y0149618D01*
X0018453Y0149218D01*
X0018116Y0148881D01*
X0018116Y0154110D01*
X0017253Y0154972D01*
X0018116Y0155835D01*
X0018116Y0164661D01*
X0017748Y0165028D01*
X0030723Y0165063D01*
X0030723Y0163811D01*
X0031502Y0163032D01*
X0031425Y0162898D01*
X0031323Y0162516D01*
X0031323Y0160260D01*
X0035275Y0160260D01*
X0035275Y0159260D01*
X0031323Y0159260D01*
X0031323Y0157003D01*
X0031425Y0156622D01*
X0031622Y0156280D01*
X0031902Y0156000D01*
X0032244Y0155803D01*
X0032625Y0155701D01*
X0035275Y0155701D01*
X0035275Y0159260D01*
X0036275Y0159260D01*
X0036275Y0155701D01*
X0038926Y0155701D01*
X0039307Y0155803D01*
X0039649Y0156000D01*
X0039929Y0156280D01*
X0040126Y0156622D01*
X0040228Y0157003D01*
X0040228Y0159260D01*
X0036276Y0159260D01*
X0036276Y0160260D01*
X0040228Y0160260D01*
X0040228Y0162516D01*
X0040126Y0162898D01*
X0040049Y0163032D01*
X0040828Y0163811D01*
X0040828Y0164028D01*
X0041619Y0163700D01*
X0041953Y0163700D01*
X0041953Y0161923D01*
X0044275Y0161923D01*
X0041953Y0161766D02*
X0040228Y0161766D01*
X0040228Y0160768D02*
X0041953Y0160768D01*
X0041953Y0159769D02*
X0036276Y0159769D01*
X0036275Y0158771D02*
X0035275Y0158771D01*
X0035275Y0159769D02*
X0018116Y0159769D01*
X0018116Y0158771D02*
X0031323Y0158771D01*
X0031323Y0157772D02*
X0018116Y0157772D01*
X0018116Y0156774D02*
X0031384Y0156774D01*
X0032347Y0155775D02*
X0018056Y0155775D01*
X0017449Y0154777D02*
X0044275Y0154777D01*
X0044275Y0155775D02*
X0039203Y0155775D01*
X0040167Y0156774D02*
X0044275Y0156774D01*
X0044275Y0157772D02*
X0040228Y0157772D01*
X0040228Y0158771D02*
X0042153Y0158771D01*
X0041953Y0162765D02*
X0040162Y0162765D01*
X0040780Y0163763D02*
X0041466Y0163763D01*
X0036275Y0157772D02*
X0035275Y0157772D01*
X0035275Y0156774D02*
X0036275Y0156774D01*
X0036275Y0155775D02*
X0035275Y0155775D01*
X0031323Y0160768D02*
X0018116Y0160768D01*
X0018116Y0161766D02*
X0031323Y0161766D01*
X0031389Y0162765D02*
X0018116Y0162765D01*
X0018116Y0163763D02*
X0030771Y0163763D01*
X0030723Y0164762D02*
X0018015Y0164762D01*
X0018116Y0153778D02*
X0044275Y0153778D01*
X0044275Y0152780D02*
X0018116Y0152780D01*
X0018116Y0151781D02*
X0019658Y0151781D01*
X0018527Y0150783D02*
X0018116Y0150783D01*
X0018116Y0149784D02*
X0018453Y0149784D01*
X0018453Y0149618D02*
X0018853Y0149618D01*
X0018853Y0149618D01*
X0018453Y0149618D01*
X0022708Y0150783D02*
X0022709Y0150783D01*
X0022708Y0151781D02*
X0022709Y0151781D01*
X0025759Y0151781D02*
X0044275Y0151781D01*
X0044275Y0150783D02*
X0026890Y0150783D01*
X0022849Y0147200D02*
X0038175Y0147200D01*
X0038475Y0146900D01*
X0038875Y0146900D01*
X0042660Y0146789D02*
X0044275Y0146789D01*
X0044275Y0147787D02*
X0042604Y0147787D01*
X0042190Y0148786D02*
X0044275Y0148786D01*
X0044275Y0149784D02*
X0041343Y0149784D01*
X0035575Y0144500D02*
X0036575Y0143500D01*
X0046675Y0143500D01*
X0049325Y0140798D02*
X0052865Y0140798D01*
X0052908Y0139799D02*
X0048175Y0139799D01*
X0048175Y0138801D02*
X0052908Y0138801D01*
X0052908Y0137802D02*
X0048175Y0137802D01*
X0048175Y0136803D02*
X0052908Y0136803D01*
X0053083Y0135805D02*
X0048175Y0135805D01*
X0048175Y0134806D02*
X0054082Y0134806D01*
X0054600Y0133808D02*
X0048175Y0133808D01*
X0048175Y0132809D02*
X0055312Y0132809D01*
X0057044Y0131811D02*
X0048175Y0131811D01*
X0048315Y0130812D02*
X0061111Y0130812D01*
X0059264Y0125820D02*
X0055287Y0125820D01*
X0056688Y0124821D02*
X0057863Y0124821D01*
X0052275Y0121500D02*
X0052275Y0120000D01*
X0052275Y0121500D02*
X0045275Y0128500D01*
X0021175Y0128500D01*
X0022709Y0144500D02*
X0035575Y0144500D01*
X0050066Y0141796D02*
X0051866Y0141796D01*
X0050868Y0142795D02*
X0050460Y0142795D01*
X0054078Y0147787D02*
X0054323Y0147787D01*
X0068287Y0143793D02*
X0069287Y0143793D01*
X0069287Y0144650D02*
X0069287Y0140500D01*
X0073043Y0140500D01*
X0073043Y0143347D01*
X0072941Y0143729D01*
X0072743Y0144071D01*
X0072464Y0144350D01*
X0072122Y0144547D01*
X0071741Y0144650D01*
X0069287Y0144650D01*
X0069287Y0142795D02*
X0068287Y0142795D01*
X0068287Y0141796D02*
X0069287Y0141796D01*
X0069287Y0140798D02*
X0068287Y0140798D01*
X0069287Y0139799D02*
X0078675Y0139799D01*
X0078675Y0138801D02*
X0073043Y0138801D01*
X0073043Y0137802D02*
X0078675Y0137802D01*
X0078675Y0136803D02*
X0073043Y0136803D01*
X0072619Y0135805D02*
X0078675Y0135805D01*
X0078675Y0140798D02*
X0073043Y0140798D01*
X0073043Y0141796D02*
X0078675Y0141796D01*
X0078675Y0142795D02*
X0073043Y0142795D01*
X0072904Y0143793D02*
X0078675Y0143793D01*
X0069264Y0125820D02*
X0065287Y0125820D01*
X0066688Y0124821D02*
X0067863Y0124821D01*
X0060768Y0067906D02*
X0059768Y0067906D01*
X0059768Y0066908D02*
X0060768Y0066908D01*
X0060768Y0065909D02*
X0059768Y0065909D01*
X0059768Y0064911D02*
X0060768Y0064911D01*
X0060768Y0063912D02*
X0059768Y0063912D01*
X0059768Y0062914D02*
X0060768Y0062914D01*
X0060768Y0061915D02*
X0059768Y0061915D01*
X0059768Y0060917D02*
X0060768Y0060917D01*
X0060768Y0057921D02*
X0059768Y0057921D01*
X0059768Y0056923D02*
X0060768Y0056923D01*
X0060768Y0055924D02*
X0059768Y0055924D01*
X0059768Y0054926D02*
X0060768Y0054926D01*
X0060768Y0053927D02*
X0059768Y0053927D01*
X0059768Y0052929D02*
X0060768Y0052929D01*
X0060768Y0051930D02*
X0059768Y0051930D01*
X0036327Y0188726D02*
X0035358Y0188726D01*
X0035358Y0189725D02*
X0036327Y0189725D01*
X0036327Y0190723D02*
X0035358Y0190723D01*
X0035358Y0192720D02*
X0036327Y0192720D01*
X0036327Y0193719D02*
X0035358Y0193719D01*
X0035358Y0194717D02*
X0036327Y0194717D01*
D31*
X0035842Y0191937D02*
X0043090Y0199185D01*
X0043905Y0200000D01*
X0067275Y0200000D01*
X0044535Y0177260D01*
X0044535Y0172119D01*
X0048275Y0172119D02*
X0048275Y0168000D01*
X0047275Y0167000D01*
X0042275Y0167000D01*
X0038275Y0171000D01*
X0035842Y0173433D01*
X0035842Y0179000D01*
X0035842Y0184063D01*
X0048275Y0176000D02*
X0048275Y0172119D01*
X0048275Y0154000D01*
X0052275Y0150000D01*
X0058035Y0150000D01*
X0058775Y0149260D01*
X0059527Y0149260D01*
X0068787Y0140000D01*
X0068787Y0133488D01*
X0082275Y0120000D01*
X0092275Y0120000D02*
X0081975Y0130300D01*
X0081975Y0166400D01*
X0079295Y0189500D02*
X0084858Y0195063D01*
X0087035Y0195063D01*
X0090972Y0199000D01*
X0101275Y0199000D01*
X0102275Y0200000D01*
X0095212Y0202937D02*
X0102275Y0210000D01*
X0095212Y0202937D02*
X0090775Y0202937D01*
X0073201Y0202937D01*
X0070275Y0200012D01*
X0067287Y0200012D01*
X0067275Y0200000D01*
X0070275Y0188988D02*
X0061264Y0188988D01*
X0060225Y0187950D01*
X0048275Y0176000D01*
X0052016Y0161881D02*
X0057157Y0156740D01*
X0058775Y0156740D01*
X0068787Y0140000D02*
X0070531Y0138256D01*
X0092275Y0100000D02*
X0092275Y0090512D01*
X0081764Y0080000D01*
X0080268Y0080000D01*
X0077275Y0077008D01*
X0077275Y0062500D01*
X0079220Y0060555D01*
X0084283Y0060555D01*
X0084283Y0055500D02*
X0080275Y0055500D01*
X0077275Y0052500D01*
X0077275Y0047500D01*
X0062275Y0032500D01*
X0062275Y0028740D01*
X0052275Y0028740D01*
X0072275Y0028740D02*
X0072275Y0035000D01*
X0074775Y0037500D01*
X0077275Y0042500D02*
X0082275Y0037500D01*
X0094775Y0037500D01*
X0094775Y0024500D01*
X0092275Y0022000D01*
X0092275Y0020512D01*
X0092787Y0020000D01*
X0092787Y0010512D01*
X0092275Y0010000D01*
X0092025Y0010250D01*
X0082275Y0010000D02*
X0082275Y0020598D01*
X0072275Y0028740D01*
X0081764Y0020000D02*
X0081764Y0010512D01*
X0082275Y0010000D01*
X0077275Y0042500D02*
X0077275Y0047500D01*
X0084283Y0050445D02*
X0090220Y0050445D01*
X0094775Y0055000D01*
X0094775Y0070000D01*
X0094220Y0070555D01*
X0084283Y0070555D01*
X0077275Y0077008D02*
X0060268Y0060000D01*
X0034775Y0078760D02*
X0024775Y0078760D01*
X0092787Y0080000D02*
X0094775Y0078012D01*
X0094775Y0070000D01*
X0092787Y0080000D02*
X0102275Y0080000D01*
X0122275Y0070000D02*
X0127275Y0070000D01*
X0140575Y0083100D01*
X0155275Y0083000D02*
X0132275Y0060000D01*
X0128275Y0060000D01*
X0155275Y0083000D02*
X0160275Y0083000D01*
X0232275Y0065000D02*
X0307275Y0065000D01*
X0312275Y0070000D01*
X0312275Y0100000D01*
X0312275Y0050000D02*
X0301275Y0050000D01*
X0282275Y0031000D01*
X0282275Y0025000D02*
X0292275Y0021260D01*
X0292275Y0010000D01*
X0282275Y0019000D02*
X0278275Y0019000D01*
X0242275Y0055000D01*
X0232275Y0055000D01*
X0292275Y0028740D02*
X0298535Y0028740D01*
X0312275Y0015000D01*
X0312275Y0040000D01*
X0312275Y0015000D02*
X0312275Y0010000D01*
X0102275Y0190000D02*
X0101775Y0189500D01*
X0094256Y0189500D01*
X0094516Y0189760D01*
X0094516Y0195063D01*
X0092275Y0230000D02*
X0092275Y0255000D01*
X0087275Y0260000D01*
X0087275Y0270000D02*
X0084675Y0270000D01*
X0079875Y0274800D01*
X0079875Y0302400D01*
X0062275Y0320000D01*
X0052275Y0320000D02*
X0074175Y0298100D01*
X0074175Y0280500D01*
X0087275Y0290000D02*
X0092275Y0295000D01*
X0092275Y0320000D01*
D32*
X0074175Y0280500D03*
X0122275Y0210000D03*
X0081975Y0166400D03*
X0073075Y0180700D03*
X0060475Y0183200D03*
X0060225Y0187950D03*
X0057675Y0177600D03*
X0043090Y0199185D03*
X0035842Y0179000D03*
X0026275Y0179600D03*
X0038875Y0146900D03*
X0046675Y0143500D03*
X0045275Y0128500D03*
X0027875Y0140982D03*
X0021175Y0128500D03*
X0063275Y0134000D03*
X0067275Y0150000D03*
D33*
X0132275Y0210000D03*
X0140575Y0083100D03*
X0160275Y0083000D03*
X0128275Y0060000D03*
X0137975Y0040400D03*
X0129275Y0028000D03*
X0135275Y0022000D03*
X0187275Y0028000D03*
X0197275Y0075000D03*
X0059775Y0047500D03*
D34*
X0122275Y0060000D02*
X0128275Y0060000D01*
X0182275Y0100000D02*
X0197275Y0085000D01*
X0197275Y0075000D01*
X0082275Y0166700D02*
X0081975Y0166400D01*
X0079295Y0172020D02*
X0072275Y0165000D01*
X0072275Y0155000D01*
X0067275Y0150000D01*
X0057764Y0140000D02*
X0047764Y0150000D01*
X0042275Y0150000D01*
X0032850Y0159425D01*
X0032850Y0159760D01*
X0032683Y0159593D01*
X0026275Y0166000D01*
X0026275Y0179600D01*
X0035775Y0168500D02*
X0038275Y0171000D01*
X0035775Y0168500D02*
X0035775Y0167240D01*
X0035775Y0159760D02*
X0032850Y0159760D01*
X0032683Y0159593D02*
X0022709Y0149618D01*
X0027875Y0140982D02*
X0028875Y0139700D01*
X0028575Y0139400D01*
X0022709Y0139382D01*
X0027875Y0140982D02*
X0028875Y0139500D01*
X0029075Y0139300D01*
X0039894Y0139382D01*
X0052775Y0126500D01*
X0075775Y0126500D01*
X0063275Y0134000D02*
X0059075Y0134000D01*
X0057275Y0135000D01*
X0057275Y0139512D01*
X0057764Y0140000D01*
X0042414Y0159760D02*
X0044535Y0161881D01*
X0042414Y0159760D02*
X0035775Y0159760D01*
X0052016Y0172119D02*
X0052016Y0174240D01*
X0057675Y0177600D02*
X0070075Y0177600D01*
X0073075Y0180600D01*
X0073075Y0180700D01*
X0079295Y0172020D02*
X0079295Y0189500D01*
D35*
X0074775Y0037500D03*
D36*
X0142275Y0210000D03*
D37*
X0152275Y0210000D03*
D38*
X0162275Y0210000D03*
D39*
X0172275Y0210000D03*
D40*
X0182275Y0210000D03*
D41*
X0192275Y0210000D03*
D42*
X0202275Y0210000D03*
D43*
X0212275Y0210000D03*
M02*
